<svg width="75" height="81" viewBox="0 0 75 81" fill="none" xmlns="http://www.w3.org/2000/svg">
<path d="M68.1667 20.6686H61.3808C62.0637 19.3187 62.4456 17.8368 62.5 16.3251C62.4017 13.6525 61.2577 11.1255 59.3144 9.28822C57.3711 7.45092 54.784 6.45032 52.1102 6.5019C48.9253 6.63907 45.8375 7.63851 43.1763 9.39353C40.515 11.1485 38.3803 13.5933 37 16.4667C35.6343 13.6013 33.5159 11.1607 30.8711 9.40559C28.2262 7.6505 25.1542 6.64686 21.9833 6.5019C21.8757 6.5019 21.768 6.5019 21.6603 6.5019C19.0248 6.50612 16.4935 7.53204 14.5987 9.36397C12.7039 11.1959 11.5931 13.6911 11.5 16.3251V16.5121C11.5553 17.9586 11.9215 19.3763 12.5738 20.6686H5.83333C5.08189 20.6686 4.36122 20.9671 3.82986 21.4984C3.29851 22.0298 3 22.7505 3 23.5019L3 32.0019C3 32.7533 3.29851 33.474 3.82986 34.0054C4.36122 34.5367 5.08189 34.8352 5.83333 34.8352H68.1667C68.9181 34.8352 69.6388 34.5367 70.1701 34.0054C70.7015 33.474 71 32.7533 71 32.0019V23.5019C71 22.7505 70.7015 22.0298 70.1701 21.4984C69.6388 20.9671 68.9181 20.6686 68.1667 20.6686ZM52.198 12.1686C53.3553 12.1385 54.4802 12.5524 55.342 13.3252C56.2039 14.0981 56.7375 15.1714 56.8333 16.3251C56.7932 17.4848 56.3065 18.5842 55.4749 19.3936C54.6434 20.203 53.5312 20.6598 52.3708 20.6686H41.1877C42.95 17.1014 46.4548 12.1686 52.198 12.1686ZM17.1667 16.4186C17.2392 15.2591 17.7541 14.1718 18.605 13.381C19.456 12.5901 20.578 12.1561 21.7397 12.1686C27.6018 12.1912 31.0358 17.0731 32.818 20.6686H21.768C20.6046 20.6773 19.4815 20.2429 18.6269 19.4535C17.7722 18.6641 17.2501 17.579 17.1667 16.4186Z" fill="white"/>
<path d="M42.6665 40.502V74.502H56.8332C59.0875 74.502 61.2495 73.6064 62.8436 72.0124C64.4376 70.4183 65.3332 68.2563 65.3332 66.002V40.502H42.6665Z" fill="white"/>
<path d="M31.3332 40.502H8.6665V66.002C8.6665 68.2563 9.56204 70.4183 11.1561 72.0124C12.7502 73.6064 14.9122 74.502 17.1665 74.502H31.3332V40.502Z" fill="white"/>
</svg>
