<svg width="54" height="61" viewBox="0 0 54 61" fill="none" xmlns="http://www.w3.org/2000/svg">
<path d="M54 3.476V57.524C53.9937 58.3119 53.6777 59.0656 53.1203 59.6225C52.5629 60.1793 51.8089 60.4945 51.021 60.5H2.979C2.18944 60.5 1.43217 60.1866 0.873589 59.6285C0.315004 59.0705 0.000795126 58.3136 0 57.524V3.476C0.00628395 2.68814 0.322254 1.93438 0.879653 1.37754C1.43705 0.820701 2.19113 0.50549 2.979 0.5H51.021C52.665 0.5 54 1.832 54 3.476ZM24.879 33.866L17.454 26.438L13.212 30.683L24.879 42.35L41.85 25.379L37.608 21.137L24.879 33.863V33.866Z" fill="white"/>
</svg>
