<svg width="192" height="43" viewBox="0 0 192 43" fill="none" xmlns="http://www.w3.org/2000/svg">
<g clip-path="url(#clip0_853_2549)">
<path d="M80.1705 20.8204V20.6504C80.9648 20.2876 81.6311 19.6936 82.0825 18.9461C82.5339 18.1986 82.7492 17.3323 82.7005 16.4604C82.7301 15.8202 82.6241 15.1809 82.3895 14.5845C82.1548 13.9881 81.7969 13.448 81.339 12.9995C80.8811 12.5511 80.3336 12.2044 79.7324 11.9823C79.1313 11.7601 78.4899 11.6675 77.8505 11.7104C76.645 11.6994 75.4438 11.8542 74.2805 12.1704V16.1004C74.9821 15.7621 75.7515 15.5877 76.5305 15.5904C76.7649 15.5598 77.0031 15.5806 77.2287 15.6513C77.4543 15.722 77.6618 15.8409 77.8368 15.9997C78.0119 16.1586 78.1503 16.3536 78.2424 16.5713C78.3346 16.789 78.3783 17.0242 78.3705 17.2604C78.3522 17.737 78.1466 18.1871 77.7983 18.5129C77.45 18.8388 76.9872 19.0139 76.5105 19.0004H74.7605V22.8804H76.3705C77.7705 22.8804 78.3705 23.5504 78.3705 24.5704C78.3697 24.8072 78.3203 25.0413 78.2253 25.2583C78.1304 25.4752 77.9919 25.6703 77.8184 25.8316C77.645 25.9928 77.4403 26.1168 77.2171 26.1957C76.9938 26.2746 76.7567 26.3068 76.5205 26.2904C75.5823 26.3217 74.65 26.1297 73.8005 25.7304L73.7305 29.4904C74.9105 30.1612 76.254 30.4901 77.6105 30.4404C78.3188 30.4845 79.0284 30.3772 79.692 30.1258C80.3557 29.8744 80.9582 29.4845 81.4596 28.9823C81.9609 28.48 82.3496 27.8767 82.5998 27.2126C82.8499 26.5484 82.9558 25.8387 82.9105 25.1304C82.9926 24.2105 82.7686 23.2891 82.273 22.5097C81.7775 21.7303 81.0384 21.1364 80.1705 20.8204Z" fill="#466BF1"/>
<path d="M60.9017 12.0195H52.5117V30.0995H56.6717V16.5295H60.9017V12.0195Z" fill="#466BF1"/>
<path d="M103.871 12H98.3711V30.1H102.461V24.1H103.831C107.831 24.1 109.131 20.37 109.131 17.99C109.131 15.61 107.721 12 103.871 12ZM103.471 20.15H102.471V16H103.471C104.391 16 104.981 16.58 104.981 18.08C104.981 20 103.991 20.17 103.471 20.17V20.15Z" fill="#466BF1"/>
<path d="M63.9316 12L60.4316 30.1H64.5716L65.0916 27H67.9516L68.4416 30.12H72.5816L69.0816 12H63.9316ZM65.7216 23L66.5016 17.48L67.2816 23H65.7216Z" fill="#466BF1"/>
<path d="M84.9004 30.0995H88.9904V16.3895H91.9704V30.0995H96.0604V12.0195H84.9004V30.0995Z" fill="#466BF1"/>
<path d="M155.731 12.0498L152.211 30.1298H156.371L156.871 26.9998H159.731L160.231 30.1298H164.371L160.871 12.0498H155.731ZM157.531 23.0498L158.311 17.5498L159.071 23.0498H157.531Z" fill="#466BF1"/>
<path d="M116.732 11.7598C111.892 11.7598 110.262 16.4098 110.262 21.0398C110.262 25.6698 111.892 30.3198 116.732 30.3198C121.572 30.3198 123.212 25.6698 123.212 21.0398C123.212 16.4098 121.582 11.7598 116.732 11.7598ZM116.732 25.9298C115.292 25.9298 114.562 24.2198 114.562 21.0398C114.562 17.8598 115.292 16.1498 116.732 16.1498C118.172 16.1498 118.912 17.8598 118.912 21.0398C118.912 24.2198 118.182 25.9298 116.732 25.9298Z" fill="#466BF1"/>
<path d="M188.081 20.6095L191.211 12.0195H186.851L184.561 18.5195H183.681L183.711 12.0195H179.691V30.0995H183.711L183.681 22.8295H184.631L186.951 30.0995H191.651L188.081 20.6095Z" fill="#466BF1"/>
<path d="M173.001 18.5495H170.141V12.0195H166.141V30.0995H170.141V22.8595H173.001V30.0995H176.991V12.0295H173.001V18.5495Z" fill="#466BF1"/>
<path d="M131.732 16.2895L128.662 12.0195H125.182V30.0995H129.272V19.0795L131.732 22.2295L134.192 19.0795V30.0995H138.282V12.0195H134.832L131.732 16.2895Z" fill="#466BF1"/>
<path d="M145.781 18.76H145.041V16.36H150.461V12H141.051V30.1H145.921C146.981 30.1 151.401 29.64 151.431 24.16C151.431 19.57 148.001 18.76 145.781 18.76ZM145.631 26.47H145.041V22.37H145.631C146.131 22.37 147.411 22.37 147.411 24.26C147.411 26.15 146.131 26.47 145.631 26.47Z" fill="#466BF1"/>
<path d="M1.37089 21.27C1.32288 26.5658 3.37731 31.6645 7.08355 35.4476C10.7898 39.2307 15.8452 41.3893 21.1409 41.45C26.4244 41.371 31.4619 39.2042 35.153 35.4231C38.8442 31.642 40.889 26.5539 40.8409 21.27C40.8409 10.13 32.0009 1.06 21.1409 1.06C15.84 1.12067 10.78 3.28344 7.07287 7.07304C3.36577 10.8626 1.31488 15.969 1.37089 21.27ZM0.370893 21.27C0.335226 18.5089 0.844471 15.7678 1.86948 13.2037C2.89448 10.6396 4.41512 8.30283 6.34435 6.32716C8.27358 4.35149 10.5735 2.7757 13.1125 1.69001C15.6515 0.604307 18.3797 0.0300133 21.1409 0C32.5709 0 41.8809 9.53 41.8809 21.27C41.8809 33.01 32.5609 42.51 21.1409 42.51C18.3822 42.48 15.6565 41.9067 13.1195 40.8228C10.5825 39.739 8.28391 38.1659 6.35507 36.1934C4.42624 34.221 2.90496 31.8877 1.87817 29.3271C0.851381 26.7665 0.3392 24.0286 0.370893 21.27Z" fill="#466BF1"/>
<path d="M14.9404 7.83978C14.2354 8.1642 13.5653 8.55957 12.9404 9.01978C17.8804 6.76978 23.9404 6.91978 27.1504 8.38978C28.1504 8.87978 28.8504 9.16978 29.1504 9.74978C26.6932 8.96733 24.1163 8.62871 21.5404 8.74978C17.5852 8.92074 13.7093 9.91528 10.1604 11.6698L9.2704 12.8098C12.2004 11.0298 17.6604 9.86978 20.6904 9.80978C23.5453 9.65825 26.4029 10.0519 29.1104 10.9698C29.05 11.2418 28.9286 11.4966 28.7554 11.7148C28.5822 11.9331 28.3616 12.1092 28.1104 12.2298C18.4604 10.5098 12.7604 12.5398 7.6004 15.9798L7.2304 17.1198C10.0699 15.1976 13.2629 13.8586 16.6241 13.1805C19.9853 12.5024 23.4478 12.4988 26.8104 13.1698C24.3704 14.0498 21.4604 14.2398 19.0304 14.8198C16.9966 15.2087 14.9919 15.7366 13.0304 16.3998C10.2204 17.3398 8.5604 18.3098 7.5204 19.5498C6.99654 20.1028 6.64853 20.7989 6.5204 21.5498C6.4581 21.9601 6.49935 22.3795 6.6404 22.7698C6.79693 23.1409 7.02069 23.4799 7.3004 23.7698C7.07545 24.0875 6.94324 24.4614 6.91851 24.8499C6.89379 25.2384 6.97754 25.6261 7.1604 25.9698C7.50357 26.4559 7.93837 26.8703 8.4404 27.1898L8.3704 27.5898C8.23463 28.1349 8.30218 28.7109 8.5604 29.2098C9.12282 30.1222 9.93485 30.8544 10.9004 31.3198C11.0225 32.0407 11.3731 32.7033 11.9004 33.2098C14.2745 35.4292 17.3636 36.7272 20.6104 36.8698C23.0691 37.0621 25.5345 36.5925 27.7504 35.5098L28.9304 34.8898C26.3214 35.8262 23.5448 36.2044 20.7804 35.9998C16.7804 35.6598 13.1704 32.9998 12.7204 32.1998C12.8604 32.2898 13.0504 32.3598 13.2104 32.4398C17.9204 34.7598 24.0004 36.0298 31.7804 32.7798L32.4204 32.1498C25.3704 34.3498 19.1504 34.2798 12.5004 30.7198C12.5626 30.3763 12.7474 30.0672 13.0204 29.8498C14.7283 30.6567 16.5234 31.264 18.3704 31.6598C20.7267 32.0708 23.1214 32.2183 25.5104 32.0998C28.4926 31.8217 31.4049 31.0336 34.1204 29.7698C34.3104 29.5998 34.4004 29.3098 34.5904 29.1198C30.8611 30.5284 26.8959 31.2074 22.9104 31.1198C19.9139 31.0014 16.972 30.2804 14.2604 28.9998C14.8904 28.7398 15.5604 28.5198 16.2604 28.3198C18.5309 29.0283 20.884 29.4384 23.2604 29.5398C27.6347 29.5056 31.9326 28.389 35.7704 26.2898C35.8904 25.9498 36.0104 25.5898 36.0104 25.5898C32.4897 27.3895 28.6127 28.3835 24.6604 28.4998C22.6967 28.5145 20.7397 28.269 18.8404 27.7698C21.6804 27.2398 25.2504 26.7698 29.2704 25.7698C31.3172 25.2261 33.237 24.2849 34.9204 22.9998C35.4216 22.6266 35.8183 22.1306 36.0722 21.5596C36.3262 20.9887 36.4289 20.3619 36.3704 19.7398C36.2152 19.1844 35.8587 18.7066 35.3704 18.3998C35.5564 18.1646 35.6871 17.8906 35.7529 17.5981C35.8186 17.3055 35.8178 17.0019 35.7504 16.7098C35.6955 16.3095 35.5666 15.923 35.3704 15.5698C35.0265 15.0906 34.583 14.6915 34.0704 14.3998C34.1682 13.8923 34.1016 13.3669 33.8804 12.8998C33.1599 11.8253 32.1417 10.9843 30.9504 10.4798C30.8446 10.0612 30.6465 9.67169 30.3704 9.33978C28.2345 7.41662 25.4645 6.3485 22.5904 6.33978H22.1404C19.6603 6.31419 17.204 6.82591 14.9404 7.83978ZM30.0804 12.6898C30.3707 12.4045 30.6018 12.0646 30.7604 11.6898C31.4749 12.0635 32.019 12.697 32.2804 13.4598C31.5608 13.1711 30.8265 12.9207 30.0804 12.7098V12.6898ZM30.6704 15.6898C29.535 15.314 28.3799 15.0002 27.2104 14.7498C27.8696 14.5157 28.4873 14.1781 29.0404 13.7498C30.0171 14.012 30.9731 14.3463 31.9004 14.7498C31.7604 14.9598 30.9004 15.7498 30.7004 15.7498L30.6704 15.6898ZM32.7304 16.5398C33.0427 16.2944 33.3276 16.0161 33.5804 15.7098C34.2204 16.2698 34.4004 16.6598 34.1004 17.2698C33.67 16.9661 33.2112 16.7049 32.7304 16.4898V16.5398ZM8.4404 22.5398C6.6904 19.9998 12.7704 18.2598 13.9304 17.8998C17.0468 16.9727 20.2342 16.3037 23.4604 15.8998C25.2516 15.6667 27.0725 15.8515 28.7804 16.4398C23.5504 17.8998 18.3704 18.3498 13.4804 19.8298C9.5104 20.9998 8.4604 22.4998 8.4404 22.4998V22.5398ZM9.7404 23.7298C11.5804 22.1298 15.3504 21.2298 16.7404 20.9198C21.1104 19.9198 25.1804 19.3398 26.8604 18.9198C28.3842 18.5692 29.871 18.0736 31.3004 17.4398C31.9472 17.6551 32.5601 17.9615 33.1204 18.3498C32.4925 18.8609 31.773 19.2477 31.0004 19.4898C27.9365 20.4953 24.7963 21.2511 21.6104 21.7498C19.2201 22.1093 16.8502 22.5933 14.5104 23.1998C13.3287 23.4784 12.2028 23.9551 11.1804 24.6098C10.6723 24.3495 10.1901 24.0414 9.7404 23.6898V23.7298ZM13.1704 25.6698C13.9685 25.3321 14.7908 25.0546 15.6304 24.8398C19.7904 23.8398 23.4604 23.6098 28.5204 22.1998C30.4173 21.7948 32.2217 21.0384 33.8404 19.9698C34.0004 19.8198 34.1704 19.6998 34.3304 19.5598C35.8004 21.8798 30.3304 23.6798 26.5304 24.5098C24.5304 24.9031 22.5604 25.2798 20.6204 25.6398C18.926 25.8858 17.254 26.267 15.6204 26.7798C14.7848 26.4382 13.967 26.0544 13.1704 25.6298V25.6698ZM8.7404 24.8998C9.1204 25.1398 9.4104 25.3398 9.8604 25.5798C9.6904 25.7198 9.4804 25.8698 9.3104 26.0398C8.9404 25.8198 8.5604 25.3398 8.7404 24.8998ZM10.7404 27.1298C11.0113 26.8887 11.3024 26.6712 11.6104 26.4798C12.3204 26.8198 13.0604 27.1298 13.7404 27.4798C13.2656 27.6437 12.8069 27.8512 12.3704 28.0998C11.8004 27.7798 11.2404 27.4598 10.6904 27.0998L10.7404 27.1298ZM10.1204 28.3098C10.5304 28.5798 10.9304 28.7998 11.3304 29.0198C11.1769 29.2255 11.0586 29.4553 10.9804 29.6998C10.3704 29.1898 10.0704 28.7798 10.0904 28.3098H10.1204Z" fill="#466BF1"/>
</g>
<defs>
<clipPath id="clip0_853_2549">
<rect width="191.29" height="42.51" fill="white" transform="translate(0.371094)"/>
</clipPath>
</defs>
</svg>
