<svg width="165" height="34" viewBox="0 0 165 34" fill="none" xmlns="http://www.w3.org/2000/svg">
<g clip-path="url(#clip0_853_2580)">
<mask id="mask0_853_2580" style="mask-type:luminance" maskUnits="userSpaceOnUse" x="0" y="0" width="165" height="34">
<path d="M165 0.754883H0V33.7549H165V0.754883Z" fill="white"/>
</mask>
<g mask="url(#mask0_853_2580)">
<path fill-rule="evenodd" clip-rule="evenodd" d="M0 17.2518C0 8.14775 7.28349 0.763031 16.2731 0.754883V6.71562C10.5329 6.72377 5.88513 11.4377 5.88513 17.2518C5.88513 23.0741 10.545 27.7941 16.2953 27.7941C22.0074 27.7941 26.7014 23.1189 26.7014 17.2132L32.5886 17.2192C32.5886 26.3661 25.2971 33.7549 16.2953 33.7549C7.29153 33.7549 0 26.3661 0 17.2518Z" fill="#222222"/>
<path fill-rule="evenodd" clip-rule="evenodd" d="M9.10352 17.2521C9.10352 13.2105 12.3428 9.93457 16.3306 9.93457C20.3204 9.93457 23.5599 13.2105 23.5599 17.2521C23.5599 21.2959 20.3204 24.5696 16.3306 24.5696C12.3428 24.5696 9.10352 21.2959 9.10352 17.2521Z" fill="#222222"/>
<path fill-rule="evenodd" clip-rule="evenodd" d="M21.3457 7.98261C21.3457 5.66431 23.2019 3.78809 25.489 3.78809C27.7822 3.78809 29.6365 5.66431 29.6365 7.98261C29.6365 10.2988 27.7822 12.1792 25.489 12.1792C23.2019 12.1792 21.3457 10.2988 21.3457 7.98261Z" fill="#222222"/>
<path fill-rule="evenodd" clip-rule="evenodd" d="M148.596 12.1371L148.092 14.6407C146.912 20.0861 146.473 21.8401 145.449 27.2548L145.221 27.4504L141.962 27.5461L141.801 27.3221L143.115 21.7444L143.499 19.917C142.099 19.8865 140.697 19.862 139.296 19.862C138.201 19.862 137.368 19.8742 136.518 19.8987C136.037 22.0927 135.636 24.0219 135.022 27.2548L134.795 27.4504L131.53 27.5461L131.371 27.3221L132.682 21.7444L133.2 19.314C134.061 15.4882 134.222 14.6469 134.735 11.1144L134.96 10.8903C136.459 10.6928 136.814 10.6295 138.349 10.3057L138.514 10.5297L138.165 12.1371L137.669 14.6407L137.147 17.0099C138.322 17.0405 139.5 17.0588 140.682 17.0588C141.93 17.0588 142.751 17.0344 144.139 17.0079C144.588 14.934 144.769 13.8015 145.162 11.1144L145.386 10.8903C146.889 10.6928 147.24 10.6295 148.779 10.3057L148.938 10.5297L148.596 12.1371Z" fill="#222222"/>
<path fill-rule="evenodd" clip-rule="evenodd" d="M112.629 20.4279C111.92 23.2351 109.955 28.0856 103.911 28.0856C99.6326 28.0856 97.2832 25.8386 97.2832 21.4078C97.2832 20.8354 97.3276 20.1976 97.4214 19.5296C97.444 19.3625 97.4658 19.2036 97.4876 19.0324C98.6535 11.6926 101.796 4.73566 108.689 4.66639C109.607 4.65417 111.472 4.55842 112.74 4.25488L112.279 7.18637C111.001 7.51842 108.979 7.69158 107.8 7.6977C106.336 7.71399 105.323 8.27829 104.621 8.95869C104.274 9.29479 104.001 9.66557 103.794 10.0017C103.587 10.3359 103.434 10.6414 103.323 10.8716C104.245 10.5803 105.253 10.397 106.388 10.397C110.599 10.397 113.11 12.7764 113.11 16.9749C113.11 18.1158 112.919 19.2872 112.629 20.4279ZM109.282 19.4176C109.508 18.4744 109.667 17.5332 109.667 16.6204C109.667 13.3304 107.577 12.7764 106.388 12.7764C101.338 12.7764 100.694 20.7213 100.694 21.9252C100.694 24.5328 102.237 25.6716 103.977 25.6716C107.418 25.6716 108.703 22.0924 109.282 19.4176Z" fill="#222222"/>
<path fill-rule="evenodd" clip-rule="evenodd" d="M154.114 17.4255C154.88 16.7512 155.325 16.3276 156.378 15.2947C157.497 14.1926 160.22 11.3405 160.731 10.7885L161.084 10.597H164.767L164.862 10.8903C164.541 11.1797 164.379 11.31 163.097 12.41C162.585 12.8357 162.27 13.1577 161.663 13.7077L157.497 17.5966L162.462 27.1611L162.27 27.4158L158.715 27.5177L158.457 27.3221C157.625 25.3093 157.404 24.8612 156.253 22.4899L154.011 17.888C153.305 21.0762 152.87 23.0848 152.078 27.2548L151.856 27.4504L148.588 27.5461L148.432 27.3221L149.743 21.7444L150.256 19.314C151.118 15.4882 151.279 14.6469 151.789 11.1144L152.015 10.8903C153.522 10.6928 153.87 10.6295 155.409 10.3057L155.57 10.5297L155.227 12.1371L154.725 14.6407L154.114 17.4255Z" fill="#222222"/>
<path fill-rule="evenodd" clip-rule="evenodd" d="M131.94 10.6575L131.781 10.3968L127.34 10.3662C124.381 10.3662 120.236 10.5596 117.242 14.1084C115.892 15.7301 114.67 18.525 114.67 21.0898C114.67 25.1499 117.34 27.4946 120.619 27.4946C123.35 27.4946 124.771 26.2907 125.315 25.8384L125.09 27.1361L125.249 27.3683L128.271 27.3011L128.501 27.0729C129.141 23.2003 129.37 21.9699 130.495 16.9625L131.94 10.6575ZM125.794 23.3346C125.442 23.6199 125.089 23.9519 124.734 24.1738C123.901 24.6934 122.806 24.9236 121.939 24.9236C119.009 24.9236 118.174 22.422 118.174 20.8635C118.174 20.7025 118.239 16.508 121.615 14.1734C123.515 12.8738 125.604 12.8085 126.665 12.8085C127.148 12.8085 127.627 12.8391 128.111 12.8391L125.794 23.3346Z" fill="#222222"/>
<path fill-rule="evenodd" clip-rule="evenodd" d="M48.3208 24.3945C50.7714 24.3945 51.9163 21.8093 52.6607 18.4827C53.1838 16.1399 53.7512 12.7052 50.7975 12.7052C48.2785 12.7052 47.1639 15.1519 46.4214 18.4827C45.7273 21.5731 45.5704 24.3945 48.3208 24.3945ZM47.1827 27.9963C43.6958 27.9963 38.6759 26.8759 40.4948 18.721C41.1748 15.6592 43.2633 9.17285 51.8546 9.17285C60.2085 9.17285 58.965 16.1053 58.452 18.552C56.9108 25.4457 52.752 27.9963 47.1827 27.9963Z" fill="#222222"/>
<path fill-rule="evenodd" clip-rule="evenodd" d="M67.6062 27.5881C65.9925 27.5881 63.3427 27.5881 62.2301 27.6227L62.041 27.421C62.3489 26.3312 63.1033 23.4098 63.9 19.8408C64.5419 16.9522 65.1134 14.4077 65.3367 13.2485C63.9866 13.2811 61.9082 13.2811 60.8921 13.3178L60.709 13.0795C60.9766 12.1974 61.3528 10.6715 61.5883 9.75485L61.8962 9.57961C62.7935 9.61422 66.2098 9.64883 68.9583 9.64883C72.2821 9.64883 75.5174 9.57961 76.1954 9.54492L76.4249 9.72016C76.1774 10.5289 75.7407 12.1974 75.5174 13.0449L75.1995 13.2485C73.8716 13.218 72.8636 13.218 70.9441 13.218C70.7791 13.9595 70.2601 16.1393 69.3969 20.0099C68.747 22.9373 68.2118 25.6182 67.8999 27.3151L67.6062 27.5881Z" fill="#222222"/>
<path fill-rule="evenodd" clip-rule="evenodd" d="M86.2519 13.656C85.1731 13.656 83.962 13.6885 83.4226 13.6885C83.2556 14.4382 82.5997 17.225 81.996 19.9406C81.2817 23.1349 80.648 26.1274 80.4026 27.3803L80.0866 27.5881C78.4428 27.5881 76.3302 27.5881 74.6421 27.6227L74.457 27.421C74.8031 26.0236 75.6824 22.2223 76.5274 18.4474C77.3744 14.646 78.1088 10.9078 78.3463 9.85258L78.6279 9.61422C80.4428 9.61422 82.2717 9.68344 86.7686 9.68344C90.2914 9.68344 93.7037 9.57961 95.5245 9.54492L95.6778 9.75485C95.4424 10.6715 94.4307 15.0514 93.4608 19.3967C92.6776 22.9006 91.9615 26.3943 91.7764 27.3803L91.5285 27.5881C90.0862 27.5881 87.4362 27.5881 86.0542 27.6227L85.9051 27.3803C86.2008 26.1947 86.849 23.4445 87.6095 20.0425C88.1849 17.4614 88.7671 14.7113 88.9965 13.6885C88.4563 13.6885 87.2594 13.656 86.2519 13.656Z" fill="#222222"/>
</g>
</g>
<defs>
<clipPath id="clip0_853_2580">
<rect width="165" height="33" fill="white" transform="translate(0 0.754883)"/>
</clipPath>
</defs>
</svg>
