<svg width="104" height="18" viewBox="0 0 104 18" fill="none" xmlns="http://www.w3.org/2000/svg">
<g clip-path="url(#clip0_735_2270)">
<path d="M46.7314 5.6615L48.8794 4.0625H41.6904V13.6425H48.8794V12.0425H43.7444V9.5965H48.1324V7.9975H43.7444V5.6615H46.7314ZM36.2604 7.7945H33.7704V5.6615H37.7544L39.9014 4.0625H31.7174V13.6425H35.9964C38.3924 13.6425 39.7764 12.5445 39.7764 10.6325C39.7764 8.7975 38.5324 7.7945 36.2604 7.7945ZM35.9184 12.0425H33.7714V9.3925H35.9184C37.2254 9.3925 37.8324 9.8325 37.8324 10.7255C37.8324 11.6195 37.1784 12.0425 35.9184 12.0425ZM54.6974 4.0625H50.7924V13.6425H52.8464V10.9295H54.7134C57.2034 10.9295 58.7584 9.6125 58.7584 7.4965C58.7584 5.3795 57.2014 4.0625 54.6974 4.0625ZM54.6514 9.3305H52.8314V5.6615H54.6514C55.9734 5.6615 56.6894 6.3205 56.6894 7.4965C56.6894 8.6715 55.9734 9.3305 54.6514 9.3305ZM28.2014 11.5725C27.6577 11.871 27.0476 12.0274 26.4274 12.0275C24.5754 12.0275 23.2374 10.6945 23.2374 8.8605C23.2374 7.0255 24.5754 5.6935 26.4274 5.6935C27.0978 5.68359 27.7533 5.89247 28.2944 6.2885L29.7724 5.1915L29.6794 5.0975C28.8234 4.3295 27.6724 3.9375 26.3654 3.9375C24.9494 3.9375 23.6584 4.4235 22.7244 5.3015C22.2589 5.75497 21.8917 6.29933 21.6455 6.90075C21.3993 7.50217 21.2795 8.1478 21.2934 8.7975C21.2842 9.45596 21.4059 10.1097 21.6516 10.7207C21.8973 11.3316 22.2619 11.8877 22.7244 12.3565C23.7009 13.2839 25.0028 13.7903 26.3494 13.7665C27.8274 13.7665 29.1194 13.2495 29.9904 12.3095L28.6684 11.3215L28.2014 11.5725ZM83.4504 4.0785V13.6585H85.5044V9.7385H89.8774V13.6585H91.9314V4.0785H89.8774V8.0135H85.5054V4.0785H83.4504ZM79.9194 13.6585H82.0814L78.0674 4.0785H75.9824L71.8904 13.6585H73.9604L74.7844 11.7285H79.1414L79.9194 13.6585ZM75.4064 10.1305L76.9944 6.2885L78.4874 10.1305H75.4074H75.4064ZM96.5364 9.7855H97.8114L100.954 13.6415H103.599L99.3994 8.6875L103.07 4.0625H100.721L97.6714 8.1705H96.5374V4.0625H94.4834V13.6425H96.5364V9.7845V9.7855ZM65.1064 7.8095V5.6775H70.4744V4.0775H63.0534V13.6575H67.3314C69.7284 13.6575 71.1124 12.5605 71.1124 10.6475C71.1124 8.8135 69.8674 7.8095 67.5964 7.8095H65.1064ZM65.1064 12.0585V9.4085H67.2544C68.5604 9.4085 69.1674 9.8485 69.1674 10.7415C69.1674 11.6355 68.5294 12.0745 67.2544 12.0745H65.1074L65.1064 12.0585ZM14.8674 3.9995C15.2404 4.4855 15.5514 5.0195 15.8164 5.5835L8.62737 10.9295L5.60938 9.0165V6.7275L8.61237 8.6245L14.8674 3.9995Z" fill="#21A038"/>
<path d="M2.54461 8.86112C2.54461 8.75112 2.54461 8.65712 2.56061 8.54712L0.740614 8.45312C0.740614 8.57812 0.724614 8.72013 0.724614 8.84513C0.722296 10.9539 1.55582 12.9777 3.04261 14.4731L4.33361 13.1731C3.76464 12.6087 3.31349 11.9369 3.00638 11.1967C2.69926 10.4564 2.5423 9.66254 2.54461 8.86112Z" fill="url(#paint0_linear_735_2270)"/>
<path d="M8.61297 2.74611C8.72197 2.74611 8.81497 2.74611 8.92397 2.76211L9.01797 0.927109C8.89297 0.927109 8.75297 0.912109 8.62797 0.912109C7.58876 0.912418 6.55995 1.11907 5.60122 1.52007C4.6425 1.92107 3.77293 2.50844 3.04297 3.24811L4.33397 4.54911C4.89126 3.97857 5.55696 3.52516 6.29195 3.21553C7.02695 2.90591 7.81642 2.74631 8.61397 2.74611H8.61297Z" fill="url(#paint1_linear_735_2270)"/>
<path d="M8.61203 14.9748C8.50303 14.9748 8.41003 14.9748 8.30103 14.9588L8.20703 16.7948C8.33103 16.7948 8.47103 16.8098 8.59503 16.8098C9.63441 16.8097 10.6634 16.6031 11.6223 16.2021C12.5812 15.8011 13.4509 15.2136 14.181 14.4738L12.89 13.1738C12.3359 13.7482 11.6709 14.204 10.9354 14.5138C10.1999 14.8235 9.4091 14.9807 8.61103 14.9758L8.61203 14.9748Z" fill="url(#paint2_linear_735_2270)"/>
<path d="M12.0363 3.81153L13.5763 2.66753C12.175 1.52343 10.4223 0.897263 8.61328 0.894531V2.72853C9.83713 2.73676 11.0301 3.11484 12.0363 3.81153Z" fill="url(#paint3_linear_735_2270)"/>
<path d="M16.5175 8.86059C16.5175 8.37459 16.4705 7.90359 16.3925 7.43359L14.6975 8.70359V8.86059C14.6986 9.71418 14.5205 10.5585 14.1746 11.3389C13.8287 12.1192 13.3227 12.8182 12.6895 13.3906L13.9195 14.7556C14.7389 14.0079 15.3933 13.0974 15.8407 12.0823C16.2881 11.0672 16.5186 9.9699 16.5175 8.86059Z" fill="#21A038"/>
<path d="M8.61367 14.9751C7.76389 14.9752 6.92375 14.795 6.14873 14.4465C5.37372 14.0979 4.68146 13.589 4.11767 12.9531L2.76367 14.1911C3.49874 15.0157 4.40006 15.6753 5.40834 16.1265C6.41663 16.5778 7.50903 16.8104 8.61367 16.8091V14.9751Z" fill="url(#paint4_linear_735_2270)"/>
<path d="M4.55164 4.32984L3.32264 2.96484C2.50151 3.7114 1.84604 4.62184 1.39855 5.6374C0.951054 6.65296 0.721479 7.75107 0.724642 8.86084H2.54464C2.54476 8.00741 2.72337 7.16343 3.06901 6.38311C3.41465 5.6028 3.91967 4.9034 4.55164 4.32984Z" fill="url(#paint5_linear_735_2270)"/>
</g>
<defs>
<linearGradient id="paint0_linear_735_2270" x1="2.84861" y1="14.2501" x2="0.989614" y2="8.83613" gradientUnits="userSpaceOnUse">
<stop offset="0.144" stop-color="#F2E913"/>
<stop offset="0.304" stop-color="#E7E518"/>
<stop offset="0.582" stop-color="#CADB26"/>
<stop offset="0.891" stop-color="#A3CD39"/>
</linearGradient>
<linearGradient id="paint1_linear_735_2270" x1="3.56197" y1="3.04111" x2="8.28097" y2="1.22911" gradientUnits="userSpaceOnUse">
<stop offset="0.059" stop-color="#0FA8E0"/>
<stop offset="0.538" stop-color="#0099F9"/>
<stop offset="0.923" stop-color="#0291EB"/>
</linearGradient>
<linearGradient id="paint2_linear_735_2270" x1="8.10103" y1="15.2488" x2="13.726" y2="13.9678" gradientUnits="userSpaceOnUse">
<stop offset="0.123" stop-color="#A3CD39"/>
<stop offset="0.285" stop-color="#86C339"/>
<stop offset="0.869" stop-color="#21A038"/>
</linearGradient>
<linearGradient id="paint3_linear_735_2270" x1="8.23928" y1="2.06353" x2="12.9163" y2="3.51853" gradientUnits="userSpaceOnUse">
<stop offset="0.057" stop-color="#0291EB"/>
<stop offset="0.79" stop-color="#0C8ACB"/>
</linearGradient>
<linearGradient id="paint4_linear_735_2270" x1="3.22667" y1="14.4821" x2="8.25067" y2="16.3731" gradientUnits="userSpaceOnUse">
<stop offset="0.132" stop-color="#F2E913"/>
<stop offset="0.298" stop-color="#EBE716"/>
<stop offset="0.531" stop-color="#D9E01F"/>
<stop offset="0.802" stop-color="#BBD62D"/>
<stop offset="0.983" stop-color="#A3CD39"/>
</linearGradient>
<linearGradient id="paint5_linear_735_2270" x1="2.11964" y1="9.08184" x2="4.12864" y2="3.81484" gradientUnits="userSpaceOnUse">
<stop offset="0.07" stop-color="#A3CD39"/>
<stop offset="0.26" stop-color="#81C55F"/>
<stop offset="0.922" stop-color="#0FA8E0"/>
</linearGradient>
<clipPath id="clip0_735_2270">
<rect width="103" height="17" fill="white" transform="translate(0.677734 0.754883)"/>
</clipPath>
</defs>
</svg>
