<svg width="142" height="33" viewBox="0 0 142 33" fill="none" xmlns="http://www.w3.org/2000/svg">
<mask id="mask0_735_2261" style="mask-type:luminance" maskUnits="userSpaceOnUse" x="1" y="7" width="140" height="19">
<path d="M1.06934 7.25488H140.7V25.2549H1.06934V7.25488Z" fill="white"/>
</mask>
<g mask="url(#mask0_735_2261)">
<path d="M28.3047 10.5898C30.2377 10.5898 31.8167 11.4398 32.4807 12.0748L31.3687 13.4378C30.5005 12.7177 29.4135 12.3137 28.2857 12.2918C25.8557 12.2918 24.3407 13.9638 24.3407 16.2548C24.3407 18.5458 25.7667 20.2148 28.3037 20.2148C29.5291 20.1921 30.7047 19.7252 31.6117 18.9008L32.6647 20.3088C31.9997 21.0058 30.3427 21.9168 28.3007 21.9168C24.7257 21.9168 22.5127 19.5118 22.5127 16.2548C22.5127 12.9988 24.7737 10.5898 28.3047 10.5898ZM39.3337 10.5898C42.6417 10.5898 45.0477 12.9958 45.0477 16.2548C45.0477 19.5148 42.6417 21.9168 39.3337 21.9168C36.0267 21.9168 33.6207 19.5118 33.6207 16.2548C33.6207 12.9988 36.0237 10.5898 39.3337 10.5898ZM39.3337 20.2118C41.5767 20.2118 43.2437 18.5248 43.2437 16.2518C43.2437 13.9788 41.5857 12.2888 39.3337 12.2888C37.0817 12.2888 35.4247 13.9758 35.4247 16.2518C35.4247 18.5278 37.0907 20.2148 39.3347 20.2148L39.3337 20.2118ZM56.4347 18.5278C56.4347 20.1218 55.4127 21.6708 52.7667 21.6708H46.9927V10.8238H52.4267C54.6247 10.8238 55.8937 12.1858 55.8937 13.7198C55.8937 14.5858 55.4907 15.3738 54.5317 16.0078C55.5057 16.3448 56.4347 17.0428 56.4347 18.5278ZM48.7727 12.5378V15.4188L52.2097 15.4008C53.4307 15.4008 54.0657 14.7208 54.0657 13.9148C54.0657 13.1728 53.5237 12.5378 52.4417 12.5378H48.7727ZM52.8747 19.9678C54.1287 19.9678 54.6097 19.2708 54.6097 18.5128C54.6097 17.6928 54.0347 17.0278 52.9047 17.0278H48.7727V19.9678H52.8747ZM63.5527 16.0838L68.3637 21.6708H65.9817L61.9827 16.9348H59.9257V21.6708H58.1457V10.8238H59.9257V15.3108H61.9827L65.8927 10.8238H68.2617L63.5527 16.0838Z" fill="#003790"/>
<path d="M73.8458 10.5898C77.1538 10.5898 79.5588 12.9958 79.5588 16.2548C79.5588 19.5148 77.1538 21.9168 73.8458 21.9168C70.5378 21.9168 68.1328 19.5118 68.1328 16.2548C68.1328 12.9988 70.5328 10.5898 73.8458 10.5898ZM73.8458 20.2118C76.0888 20.2118 77.7548 18.5248 77.7548 16.2518C77.7548 13.9788 76.0978 12.2888 73.8448 12.2888C71.5938 12.2888 69.9368 13.9758 69.9368 16.2518C69.9368 18.5278 71.6058 20.2148 73.8458 20.2148V20.2118ZM91.5478 10.8248H93.2558V21.6498H91.4758V13.6238L87.9158 18.3748H86.8328L83.2728 13.6238V21.6708H81.4928V10.8238H83.2098L87.3738 16.3808L91.5478 10.8248ZM101.423 15.2628C103.805 15.2628 105.107 16.6548 105.107 18.4498C105.107 20.2448 103.805 21.6698 101.546 21.6698H95.6618V10.8248H104.096V12.5388H97.4448V15.2638L101.423 15.2628ZM101.468 19.9688C102.707 19.9688 103.272 19.2858 103.272 18.4648C103.272 17.6448 102.716 16.9618 101.468 16.9618H97.4448V19.9688H101.468ZM114.994 21.6708L113.818 18.9638H108.706L107.53 21.6708H105.585L110.288 10.8448H112.254L116.96 21.6708H114.994ZM109.392 17.3368H113.12L111.265 13.0188L109.392 17.3368ZM126.306 10.8248H128.086V21.6498H126.306V17.0278H120.04V21.6708H118.259V10.8238H120.04V15.3338H126.306V10.8248ZM135.902 16.0838L140.698 21.6708H138.331L134.323 16.9348H132.266V21.6708H130.486V10.8238H132.266V15.3108H134.323L138.232 10.8358H140.602L135.902 16.0838Z" fill="#003790"/>
<path d="M1.06934 16.2517C1.06816 17.4342 1.3001 18.6054 1.7519 19.6982C2.2037 20.791 2.86649 21.784 3.70238 22.6204C4.53826 23.4569 5.53084 24.1203 6.62334 24.5729C7.71584 25.0254 8.88683 25.2581 10.0693 25.2577H10.4293V21.8327H10.0693C9.32767 21.8468 8.59065 21.7128 7.90136 21.4387C7.21207 21.1646 6.58433 20.7558 6.05486 20.2363C5.52539 19.7167 5.1048 19.0968 4.81769 18.4129C4.53057 17.7289 4.38269 16.9945 4.38269 16.2527C4.38269 15.5109 4.53057 14.7766 4.81769 14.0926C5.1048 13.4086 5.52539 12.7887 6.05486 12.2692C6.58433 11.7496 7.21207 11.3409 7.90136 11.0667C8.59065 10.7926 9.32767 10.6587 10.0693 10.6727H10.4293V7.26172H10.0693C7.68412 7.26172 5.39645 8.20856 3.70891 9.89422C2.02137 11.5799 1.07199 13.8665 1.06934 16.2517Z" fill="#FC5055"/>
<path d="M11.867 7.43457V12.1146H10.063C9.51182 12.1025 8.96376 12.2006 8.45099 12.4031C7.93822 12.6057 7.47107 12.9086 7.07696 13.2942C6.68285 13.6797 6.36971 14.1401 6.15593 14.6483C5.94215 15.1565 5.83203 15.7022 5.83203 16.2536C5.83203 16.8049 5.94215 17.3507 6.15593 17.8589C6.36971 18.3671 6.68285 18.8274 7.07696 19.213C7.47107 19.5985 7.93822 19.9015 8.45099 20.104C8.96376 20.3066 9.51182 20.4047 10.063 20.3926H11.867V25.0716C13.8994 24.6565 15.726 23.5522 17.0378 21.9454C18.3497 20.3385 19.0662 18.3279 19.0662 16.2536C19.0662 14.1793 18.3497 12.1686 17.0378 10.5618C15.726 8.95497 13.8994 7.85062 11.867 7.43557V7.43457Z" fill="#003790"/>
</g>
</svg>
