<svg width="110" height="40" viewBox="0 0 110 40" fill="none" xmlns="http://www.w3.org/2000/svg">
<g clip-path="url(#clip0_735_2279)">
<path d="M54.6221 18.781C53.87 18.4917 52.8863 18.4051 51.8158 18.4051H45.8554V16.5539H56.0978V13.3721H41.6602V27.1404H51.4397C52.7995 27.1404 53.8119 27.0248 54.5644 26.7353C56.1557 26.1279 57.2262 24.6528 57.2262 22.7148C57.2262 20.7481 56.2135 19.3885 54.6221 18.781ZM52.539 23.5537C52.3077 23.6405 51.9894 23.6693 51.5841 23.6693H45.8554V21.471H51.5841C52.0472 21.471 52.4232 21.5001 52.7127 21.6446C53.0598 21.8182 53.2335 22.1364 53.2335 22.5412C53.2335 22.9462 53.031 23.3801 52.539 23.5537Z" fill="#333333"/>
<path d="M68.9905 13.3721H62.8568L57.2148 27.1404H61.9599L62.741 25.1445H69.1062L69.9164 27.1404H74.6326L68.9905 13.3721ZM63.7825 22.1073L65.7791 16.5539H66.0973L68.0936 22.1073H63.7825Z" fill="#333333"/>
<path d="M80.031 22.0209V27.1405H75.8359V13.3721H80.031V18.4052H86.7723V13.3721H90.9677V27.1405H86.7723V22.0209H80.031Z" fill="#333333"/>
<path d="M97.6094 21.9341V27.1405H93.4141V13.3721H97.6094V18.5499H98.7666L103.83 13.3721H109.095L102.383 19.967L109.356 27.1405H103.772L98.7666 21.9341H97.6094Z" fill="#333333"/>
<path d="M0.355469 5.34277H33.6292V20.9254C33.6292 25.2141 31.3406 29.1773 27.6257 31.3219L16.9925 37.4604L6.35903 31.3219C2.64398 29.1773 0.355473 25.2141 0.355473 20.9254L0.355469 5.34277Z" fill="#FFDD2D"/>
<path fill-rule="evenodd" clip-rule="evenodd" d="M9.53516 13.3721V18.5427C10.2424 17.7443 11.5283 17.204 12.9986 17.204H14.5963V23.2147C14.5963 24.8138 14.1617 26.3797 13.5169 27.1496H20.4668C19.8234 26.3789 19.3898 24.815 19.3898 23.2178V17.204H20.9876C22.4579 17.204 23.7437 17.7443 24.4509 18.5427V13.3721H9.53516Z" fill="#333333"/>
</g>
<defs>
<clipPath id="clip0_735_2279">
<rect width="109" height="39" fill="white" transform="translate(0.355469 0.754883)"/>
</clipPath>
</defs>
</svg>
