<svg width="88" height="33" viewBox="0 0 88 33" fill="none" xmlns="http://www.w3.org/2000/svg">
<g clip-path="url(#clip0_735_2255)">
<path d="M25.43 4.40465H4.528L6.033 0.264648H26.936L25.43 4.40465ZM24.678 6.47565H3.765L2.259 10.6166H23.162L24.678 6.47565ZM22.418 12.6686H1.507L0 16.8096H20.885L22.419 12.6696L22.418 12.6686Z" fill="#009FDF"/>
<path d="M75.2384 27.1727H79.0024C79.5375 27.2366 80.0801 27.1678 80.5824 26.9725C81.0846 26.7772 81.5311 26.4613 81.8824 26.0527C82.399 25.3767 82.6591 24.5394 82.6164 23.6897C82.6518 23.1493 82.5525 22.6085 82.3275 22.1158C82.1026 21.6232 81.759 21.194 81.3274 20.8667C80.6288 20.4093 79.7979 20.1972 78.9654 20.2637H75.2384V27.1727ZM70.2964 31.3417V6.47571H86.4764L85.0544 10.6457H75.2384V16.1507H79.2384C82.4664 16.1507 84.1414 16.9227 85.2984 17.9107C86.1262 18.6436 86.7773 19.5544 87.2029 20.5748C87.6284 21.5953 87.8173 22.6988 87.7554 23.8027C87.8191 24.9914 87.5847 26.1772 87.0735 27.2523C86.5623 28.3274 85.7906 29.2577 84.8284 29.9587C83.2754 31.0307 81.6484 31.3327 78.3344 31.3327L70.2964 31.3417ZM55.9724 31.3417V10.6357H48.7824V6.47571H68.7444L67.3224 10.6457H60.9604V31.3507L55.9724 31.3417ZM36.0474 16.4337H38.8714C39.4488 16.4731 40.0288 16.4286 40.5934 16.3017C41.1806 16.114 41.6866 15.7325 42.0285 15.2196C42.3705 14.7067 42.528 14.0929 42.4754 13.4787C42.5539 12.8683 42.4056 12.2503 42.0587 11.742C41.7118 11.2336 41.1904 10.8702 40.5934 10.7207C39.977 10.5774 39.3436 10.5202 38.7114 10.5507H36.0474V16.4337ZM36.0474 20.7347V27.2567H39.4924C40.4416 27.3651 41.3959 27.1021 42.1554 26.5227C42.5057 26.1984 42.7801 25.8008 42.9592 25.3583C43.1382 24.9159 43.2176 24.4393 43.1914 23.9627C43.2061 23.2012 42.9746 22.4552 42.5314 21.8357C41.7984 20.8947 40.8944 20.7157 39.3514 20.7157L36.0474 20.7347ZM44.0094 18.1087V18.1937C44.8487 18.5166 45.6329 18.9672 46.3344 19.5297C47.0434 20.1181 47.6038 20.8653 47.97 21.7108C48.3363 22.5562 48.4981 23.476 48.4424 24.3957C48.4424 27.7937 46.6354 30.2497 43.6714 30.9837C42.4894 31.2729 41.2719 31.3905 40.0564 31.3327H31.1064V6.47471H39.0684C40.3332 6.42838 41.5986 6.54534 42.8334 6.82271C45.7134 7.59471 47.6054 9.58071 47.6054 12.7147C47.629 13.4619 47.5002 14.206 47.2269 14.9018C46.9535 15.5976 46.5413 16.2304 46.0154 16.7617C45.4564 17.329 44.7906 17.78 44.0564 18.0887L44.0094 18.1087Z" fill="#0A2973"/>
</g>
<defs>
<clipPath id="clip0_735_2255">
<rect width="88" height="32" fill="white" transform="translate(0 0.254883)"/>
</clipPath>
</defs>
</svg>
