<svg width="134" height="40" viewBox="0 0 134 40" fill="none" xmlns="http://www.w3.org/2000/svg">
<g clip-path="url(#clip0_853_2532)">
<path d="M0.693359 39.1206H19.9379V20.1143C15.9215 27.6864 8.40829 32.6085 0.693359 34.497C0.717812 35.9285 0.693359 39.1206 0.693359 39.1206Z" fill="#08787C"/>
<path d="M6.84375 29.563C11.3401 27.1913 15.0722 23.6013 17.6091 19.207C17.6091 19.207 17.6091 17.0139 17.6091 16.9652C13.5753 15.6356 9.89811 13.4087 6.85598 10.4531C6.85598 15.6616 6.85598 29.563 6.85598 29.563" fill="#08787C"/>
<path d="M7.88281 0.840309V8.08952C9.35507 9.54467 10.9804 10.8375 12.7306 11.9456V4.16033C10.9919 3.24457 9.36861 2.12598 7.89504 0.828125" fill="#08787C"/>
<path d="M34.3645 7.47402C34.3682 7.67794 34.3539 7.88179 34.3217 8.0832C34.294 8.29336 34.2118 8.49269 34.0831 8.66149C33.9545 8.83029 33.7838 8.96272 33.5881 9.0457C32.9795 9.28088 32.3185 9.34822 31.6747 9.24064V6.27394C32.3707 6.12583 33.096 6.20045 33.747 6.48715C33.9381 6.57284 34.0988 6.7141 34.2079 6.89239C34.317 7.07068 34.3694 7.27768 34.3584 7.4862M36.4246 6.95622C36.3677 6.47732 36.1694 6.02604 35.8549 5.6595C35.5404 5.29297 35.1238 5.02767 34.6579 4.8972C34.1192 4.72734 33.5598 4.63103 32.9951 4.61088C32.6035 4.59223 32.211 4.60445 31.8214 4.64744C31.7686 4.6414 31.7152 4.6414 31.6624 4.64744V2.36911H33.4964L35.5505 2.66151L35.6299 0.833984H29.3333L29.5839 3.14277V8.3025L29.3027 10.7392H29.6634C29.6634 10.7392 30.5315 10.7392 30.9411 10.7392C31.1611 10.7392 31.3873 10.7392 31.6013 10.7697C31.9131 10.7697 32.2126 10.8062 32.5366 10.8062H32.7567C33.7594 10.8337 34.7412 10.5176 35.5382 9.91073C35.9343 9.53891 36.2235 9.06848 36.3761 8.54802C36.5287 8.02756 36.5392 7.47594 36.4063 6.95013" fill="#111138"/>
<path d="M42.7399 6.0791C42.4098 6.0791 42.0797 6.0791 41.7373 6.0791C41.395 6.0791 41.071 6.0791 40.7531 6.0791C40.9487 5.60394 41.1444 5.14096 41.3644 4.65971L41.8107 3.60583L42.7399 6.0791ZM43.3512 1.97324L43.0395 0.754883H40.9549L40.7103 1.83313L38.1917 8.33306L37.1035 10.6845L39.292 10.7149L39.6711 8.94223L40.1968 7.58986H43.3329L44.0482 9.30774L44.4394 10.6906H47.2637L46.3101 9.07016L43.3512 1.97324Z" fill="#111138"/>
<path d="M64.8465 10.715L67.7198 10.6846L63.1471 5.51874L67.4263 0.803711H64.9077L64.1557 1.85758C64.1557 1.85758 62.2178 3.97143 61.1664 5.13496V2.5886L61.4598 0.840262H58.8189L58.9778 2.56423L59.0084 8.65601L58.8066 10.6907H61.4415L61.1541 8.68038V6.24367L64.8221 10.6968L64.8465 10.715Z" fill="#111138"/>
<path d="M56.3915 7.7482C56.3915 7.09029 56.4282 2.63719 56.3915 2.63719L56.6177 0.858398H54.0073L54.2213 2.57628V4.65967H50.5533C50.4892 3.52343 50.5817 2.3838 50.8284 1.27264L50.9262 0.870582H48.2119L48.2609 1.23609C48.2609 1.36402 48.432 2.73466 48.4565 3.3743C48.487 4.70231 48.4565 6.05468 48.4565 7.3766V7.66901C48.4565 8.23554 48.322 9.95342 48.267 10.2641L48.1875 10.6479H50.8101L50.7612 10.2946C50.7612 10.0692 50.7062 9.84377 50.6817 9.61228C50.6145 9.10057 50.5594 8.61323 50.5228 8.12589C50.4861 7.63855 50.5228 7.11465 50.5228 6.62122V6.27399H54.2885V7.01109C54.3594 8.09836 54.2709 9.19012 54.0256 10.2519L53.9095 10.6601H56.6666L56.5993 10.2702C56.4536 9.44573 56.3841 8.60969 56.3915 7.77256" fill="#111138"/>
<path d="M88.0465 15.5823L88.126 15.1924H82.5262L82.569 15.5579C82.7769 17.2271 82.9114 18.7987 83.0031 20.3521C83.0703 21.4669 83.0581 22.6305 83.0396 23.7331C83.0396 24.129 83.0396 24.525 83.0396 24.9514H72.5616C72.5066 21.9055 72.4699 18.7256 73.2708 15.631L73.3747 15.2229H67.5977L67.6466 15.5884C67.6466 15.5884 68.0806 19.3531 68.1356 21.1258C68.2395 24.5311 68.2029 28.0095 68.1845 31.3783V32.1702C68.1845 33.6383 67.83 38.1036 67.6771 38.8712L67.5977 39.2549H73.1729L73.1301 38.8955C73.0567 38.2863 72.9896 37.732 72.9101 37.1533C72.7511 35.8801 72.58 34.5764 72.5127 33.2789C72.4455 31.9813 72.4577 30.6655 72.476 29.3923C72.476 28.9233 72.476 28.4603 72.476 27.9912H83.1314C83.1314 28.7893 83.1314 29.5934 83.1314 30.3792C83.1742 33.3094 83.2109 36.075 82.4468 38.8468L82.3306 39.2671H88.126L88.0465 38.8833C87.6713 36.735 87.4872 34.5579 87.4963 32.3773C87.4963 30.5985 87.4963 22.7218 87.5758 20.5349C87.6055 18.8745 87.7628 17.2187 88.0465 15.5823Z" fill="#111138"/>
<path d="M53.8717 36.3365V27.808C56.5493 27.8872 61.6477 28.2832 61.7089 28.2832H62.0573V24.3905L53.8717 24.8535V18.1525C56.317 18.116 60.8836 18.0916 63.2677 18.8348L63.6468 18.9445L63.7018 18.5607C63.7951 17.5481 63.8115 16.5299 63.7507 15.5148V15.2041H48.9199L48.975 15.5818C49.3834 18.7198 49.5286 21.8863 49.409 25.0484C49.409 25.7673 49.409 26.48 49.409 27.211C49.4579 31.7981 48.9444 38.828 48.9444 38.895V39.2484L63.659 39.3154V38.9986C63.6957 38.2128 63.7629 36.1172 63.7935 35.8248L63.8546 35.3801L63.4083 35.4715C60.2844 36.0866 57.1047 36.3765 53.9206 36.3365" fill="#111138"/>
<path d="M41.3042 25.7863L41.5059 25.6645C42.8447 24.7629 44.373 23.4349 44.4586 21.1748C44.587 18.0498 42.8753 15.8445 39.7636 15.0831C36.9617 14.4647 34.0479 14.5674 31.2968 15.3816C29.8357 15.7897 29.5973 15.9237 29.6401 16.2649C29.7196 16.874 29.8479 17.6051 29.9702 18.2995C30.0619 18.799 30.1536 19.3108 30.2208 19.8042C30.2347 19.8924 30.273 19.975 30.3313 20.0427C30.3896 20.1105 30.4656 20.1608 30.551 20.188C30.6374 20.2129 30.729 20.2142 30.8162 20.1917C30.9033 20.1692 30.9827 20.1237 31.0461 20.06L31.2295 19.8712C31.9488 19.1286 32.8235 18.5531 33.7914 18.1857C34.7592 17.8182 35.7965 17.6678 36.8293 17.7452C37.5107 17.7416 38.1738 17.9651 38.7133 18.3801C39.2527 18.7951 39.6374 19.3778 39.8064 20.0357C40.1977 21.8632 39.5436 23.4227 38.1314 24.0502C37.358 24.3719 36.5497 24.6029 35.7228 24.7385C34.8119 24.8969 33.0085 25.0248 32.984 25.0248H32.6661L32.8067 28.0707H33.1246C33.1246 28.0707 34.7446 27.9976 36.0896 27.9976C36.7009 27.9976 38.6327 28.1377 39.623 28.7286C40.0479 28.9712 40.417 29.2998 40.7066 29.6933C40.9962 30.0867 41.1997 30.5363 41.3042 31.0131C41.567 32.3776 41.8055 35.6367 38.2475 36.4104C35.1909 37.0805 32.6478 36.4104 30.7771 34.4001L30.2636 33.8518L30.068 33.6508C30.011 33.5894 29.9374 33.5458 29.856 33.5252C29.7746 33.5047 29.689 33.5081 29.6095 33.5351C29.5313 33.5628 29.4625 33.6117 29.4106 33.6762C29.3588 33.7408 29.3261 33.8185 29.3161 33.9006L29.2244 34.6498C29.1327 35.387 29.0532 36.0814 28.9371 36.7637C28.8774 37.0211 28.911 37.2913 29.0318 37.5264C29.1526 37.7616 29.3529 37.9467 29.5973 38.0491C31.6933 39.1864 34.0454 39.7734 36.4319 39.7548C36.9026 39.7548 37.3795 39.7548 37.8563 39.6938C39.7606 39.5716 41.583 38.8771 43.0831 37.7018C45.2044 35.9718 46.1398 33.8701 45.9319 31.4578C45.6813 28.7104 44.0979 26.8219 41.2797 25.835" fill="#111138"/>
<path d="M111.839 28.7766V25.8343C111.839 22.4229 111.802 18.9018 112.42 15.594L112.487 15.2041H106.716L106.783 15.594C106.979 16.6174 107.15 17.7078 107.291 18.8409C107.325 18.9663 107.326 19.0984 107.294 19.2243C107.262 19.3502 107.198 19.4657 107.107 19.5597C105.274 21.5152 103.476 23.5011 101.746 25.4261C100.156 27.1866 98.5302 28.9898 96.8552 30.7747C96.8918 29.2639 96.8552 27.7654 96.8552 26.2972C96.7757 22.6422 96.7084 19.1272 97.6315 15.6244L97.7355 15.2163H91.8301L91.9523 15.6366C92.4143 17.405 92.604 19.2331 92.5148 21.0583V22.8554C92.5148 25.9926 92.5148 29.2335 92.5148 32.4134C92.5148 32.8885 92.5148 33.382 92.5148 33.845C92.5585 34.7364 92.5442 35.6297 92.472 36.5192C92.3988 37.0588 92.2947 37.5937 92.1602 38.1214C92.1052 38.3711 92.0501 38.6331 91.989 38.8829L91.9095 39.2788H97.6254L97.5704 38.9011C97.4482 38.1214 97.3687 37.3477 97.2831 36.5863C97.2403 36.1416 97.1975 35.709 97.1364 35.2643C97.1215 35.0609 97.1825 34.8592 97.3075 34.6978C98.9276 32.9495 100.535 31.1768 102.076 29.4467C103.831 27.5034 105.646 25.4809 107.493 23.5011V26.8089C107.493 27.8811 107.493 28.9593 107.493 30.0071C107.493 31.6154 107.529 33.2784 107.462 34.9171C107.395 35.8307 107.277 36.7398 107.107 37.6401C107.04 38.0605 106.961 38.4808 106.9 38.9011L106.845 39.2788H112.512L112.42 38.9194C111.809 35.7334 111.809 32.2185 111.839 28.8131" fill="#111138"/>
<path d="M126.407 18.409C126.403 18.342 126.403 18.2749 126.407 18.2079L133.694 19.14L133.236 15.1621H115.024L114.621 19.14L122.421 18.2079V33.3947L121.669 39.2672H127.171L126.48 33.4922C126.499 33.3947 126.425 23.3799 126.407 18.409Z" fill="#111138"/>
</g>
<defs>
<clipPath id="clip0_853_2532">
<rect width="133" height="39" fill="white" transform="translate(0.693359 0.754883)"/>
</clipPath>
</defs>
</svg>
