<svg width="234" height="235" viewBox="0 0 234 235" fill="none" xmlns="http://www.w3.org/2000/svg">
<path d="M119.922 202.058C71.9569 203.7 31.7395 166.155 30.0842 118.191C28.4289 70.2266 65.9625 29.9985 113.927 28.3299C161.909 26.6607 202.156 64.2121 203.812 112.195C205.468 160.179 167.906 200.415 119.922 202.058ZM114.113 39.2476C72.1877 40.8214 39.4852 76.1008 41.0897 118.025C42.6943 159.95 77.9975 192.626 119.921 190.991C161.801 189.358 194.436 154.099 192.833 112.218C191.231 70.3368 155.996 37.6754 114.113 39.2476Z" fill="#4886FF"/>
<path d="M152.509 85.6172C147.591 85.4102 143.203 87.5294 141.012 92.134C140.317 93.5956 140.018 95.2121 138.919 96.4507C135.8 99.9666 129.152 97.9731 129.394 92.9105C129.834 82.5784 141.385 74.5516 151.227 74.5653C160.707 73.4081 173.553 82.8458 174.109 92.5815C174.346 96.7345 169.481 99.7299 166.007 97.3972C162.122 94.7373 162.74 85.6355 152.509 85.6172Z" fill="#4886FF"/>
<path d="M82.9602 85.6164C77.8753 85.551 73.39 87.7649 71.0212 92.4865C70.39 93.7397 70.0445 95.0952 69.1944 96.2291C65.1068 101.681 52.9296 96.124 64.7654 82.5113C69.2767 77.654 75.1395 74.9155 81.6865 74.5645C89.781 74.58 97.0619 77.6522 101.7 84.5044C110.478 97.4713 98.433 101.15 95.173 95.9412C91.9222 90.747 91.3403 85.7411 82.9602 85.6164Z" fill="#4886FF"/>
<path d="M85.5817 158.271C83.026 154.364 80.8798 150.653 79.7313 145.649C79.0805 142.815 76.2053 131.188 83.367 132.987C84.0493 133.315 84.7047 133.887 85.2572 134.396C102.838 150.598 131.28 150.314 148.874 134.315C149.723 133.542 150.526 132.867 151.67 132.599C156.172 132.512 155.891 136.47 155.608 139.631C152.498 174.342 106.912 188.025 85.5817 158.271Z" fill="#4886FF"/>
</svg>
