<svg width="52" height="52" viewBox="0 0 52 52" fill="none" xmlns="http://www.w3.org/2000/svg">
<path d="M29.5145 29.1196C29.5145 31.4172 27.6269 33.2796 25.2982 33.2796C22.9696 33.2796 21.082 31.4172 21.082 29.1196C21.082 26.8221 22.9696 24.9596 25.2982 24.9596C27.6269 24.9596 29.5145 26.8221 29.5145 29.1196Z" fill="#D9D9D9"/>
<path d="M28.4604 24.9596L35.8388 16.6396M29.5145 29.1196C29.5145 31.4172 27.6269 33.2796 25.2982 33.2796C22.9696 33.2796 21.082 31.4172 21.082 29.1196C21.082 26.8221 22.9696 24.9596 25.2982 24.9596C27.6269 24.9596 29.5145 26.8221 29.5145 29.1196Z" stroke="#EBEBEB" stroke-width="3" stroke-linecap="round"/>
<path d="M2.55859 26.3564C2.55859 15.457 2.55859 10.0073 5.99161 6.62134C9.42464 3.23535 14.95 3.23535 26.0007 3.23535C37.0513 3.23535 42.5768 3.23535 46.0099 6.62134C49.4428 10.0073 49.4428 15.457 49.4428 26.3564C49.4428 37.2556 49.4428 42.7053 46.0099 46.0915C42.5768 49.4774 37.0513 49.4774 26.0007 49.4774C14.95 49.4774 9.42464 49.4774 5.99161 46.0915C2.55859 42.7053 2.55859 37.2556 2.55859 26.3564Z" stroke="#EBEBEB" stroke-width="4"/>
<path d="M24 11.4402C24 12.5447 24.8954 13.4402 26 13.4402C27.1046 13.4402 28 12.5447 28 11.4402H24ZM26 4.50684H24V11.4402H26H28V4.50684H26Z" fill="#EBEBEB"/>
<path d="M39.2023 10.9292C38.8694 11.3699 38.9568 11.997 39.3974 12.3299C39.8381 12.6628 40.4652 12.5755 40.7981 12.1348L39.2023 10.9292ZM44.1797 6L43.3818 5.39719L39.2023 10.9292L40.0002 11.532L40.7981 12.1348L44.9776 6.60281L44.1797 6Z" fill="#EBEBEB"/>
<path d="M12.9773 41.603C13.3103 41.1624 13.2229 40.5352 12.7823 40.2023C12.3416 39.8694 11.7145 39.9567 11.3816 40.3974L12.9773 41.603ZM8 46.5322L8.79789 47.135L12.9773 41.603L12.1795 41.0002L11.3816 40.3974L7.20211 45.9294L8 46.5322Z" fill="#EBEBEB"/>
<path d="M10.9292 12.9773C11.3699 13.3103 11.997 13.2229 12.3299 12.7823C12.6628 12.3416 12.5755 11.7145 12.1348 11.3816L10.9292 12.9773ZM6 8L5.39719 8.79789L10.9292 12.9773L11.532 12.1795L12.1348 11.3816L6.60281 7.20211L6 8Z" fill="#EBEBEB"/>
<path d="M39.602 40.2023C39.1614 39.8694 38.5343 39.9568 38.2013 40.3974C37.8684 40.8381 37.9558 41.4652 38.3964 41.7981L39.602 40.2023ZM44.5312 45.1797L45.1341 44.3818L39.602 40.2023L38.9992 41.0002L38.3964 41.7981L43.9284 45.9776L44.5312 45.1797Z" fill="#EBEBEB"/>
<path d="M24 41.5999C24 40.4953 24.8954 39.5999 26 39.5999C27.1046 39.5999 28 40.4953 28 41.5999H24ZM26 48.5332H24V41.5999H26H28V48.5332H26Z" fill="#EBEBEB"/>
<path d="M9.83757 25.7334C10.9421 25.7334 11.8376 26.6288 11.8376 27.7334C11.8376 28.838 10.9421 29.7334 9.83757 29.7334V25.7334ZM2.81055 27.7334V25.7334H9.83757V27.7334V29.7334H2.81055V27.7334Z" fill="#EBEBEB"/>
<path d="M42.8636 29.7334C41.759 29.7334 40.8636 28.838 40.8636 27.7334C40.8636 26.6288 41.759 25.7334 42.8636 25.7334V29.7334ZM49.8906 27.7334V29.7334H42.8636V27.7334V25.7334H49.8906V27.7334Z" fill="#EBEBEB"/>
</svg>
