<svg width="52" height="52" viewBox="0 0 52 52" fill="none" xmlns="http://www.w3.org/2000/svg">
<path d="M3.00006 26.121C3.00006 15.2217 3.00006 9.772 6.43307 6.38599C9.86611 3 15.3915 3 26.4422 3C37.4928 3 43.0182 3 46.4514 6.38599C49.8843 9.772 49.8843 15.2217 49.8843 26.121C49.8843 37.0202 49.8843 42.47 46.4514 45.8561C43.0182 49.242 37.4928 49.242 26.4422 49.242C15.3915 49.242 9.86611 49.242 6.43307 45.8561C3.00006 42.47 3.00006 37.0202 3.00006 26.121Z" stroke="#EBEBEB" stroke-width="4"/>
<path d="M35.3333 24.8333C34.689 24.8333 34.1667 24.311 34.1667 23.6667V21.3333C34.1667 20.689 34.689 20.1667 35.3333 20.1667H37.6667C38.311 20.1667 38.8333 20.689 38.8333 21.3333V23.6667C38.8333 24.311 38.311 24.8333 37.6667 24.8333V33C37.6667 33.9283 37.2979 34.8185 36.6415 35.4749C35.9852 36.1313 35.0949 36.5 34.1667 36.5C33.2384 36.5 32.3482 36.1313 31.6918 35.4749C31.0354 34.8185 30.6667 33.9283 30.6667 33V28.3333H28.3333V34.1667H29.5V36.5H14.3333V34.1667H15.5V16.6667C15.5 16.3572 15.6229 16.0605 15.8417 15.8417C16.0605 15.6229 16.3572 15.5 16.6667 15.5H27.1667C27.4761 15.5 27.7728 15.6229 27.9916 15.8417C28.2104 16.0605 28.3333 16.3572 28.3333 16.6667V26H30.6667C31.2855 26 31.879 26.2458 32.3166 26.6834C32.7542 27.121 33 27.7145 33 28.3333V33C33 33.3094 33.1229 33.6062 33.3417 33.825C33.5605 34.0438 33.8572 34.1667 34.1667 34.1667C34.4761 34.1667 34.7728 34.0438 34.9916 33.825C35.2104 33.6062 35.3333 33.3094 35.3333 33V24.8333ZM26 34.1667V17.8333H17.8333V34.1667H26Z" fill="#EBEBEB"/>
<path fill-rule="evenodd" clip-rule="evenodd" d="M26 17.8333V34.1667H17.8333V17.8333H26Z" fill="#EBEBEB"/>
</svg>
