<svg width="52" height="52" viewBox="0 0 52 52" fill="none" xmlns="http://www.w3.org/2000/svg">
<path d="M29.7015 28.7898L38.338 19.0547M30.9353 33.6574C30.9353 36.3458 28.7258 38.525 26.0001 38.525C23.2744 38.525 21.0649 36.3458 21.0649 33.6574C21.0649 30.9691 23.2744 28.7898 26.0001 28.7898C28.7258 28.7898 30.9353 30.9691 30.9353 33.6574Z" stroke="#4886FF" stroke-width="4" stroke-linecap="round"/>
<path d="M11.1945 26.3566C11.1945 18.2918 17.8231 11.7539 26 11.7539C28.6968 11.7539 31.2251 12.465 33.4028 13.7075" stroke="#4886FF" stroke-width="4" stroke-linecap="round"/>
<path d="M2.55792 26.3564C2.55792 15.457 2.55792 10.0073 5.99094 6.62134C9.42397 3.23535 14.9493 3.23535 26 3.23535C37.0507 3.23535 42.5761 3.23535 46.0093 6.62134C49.4422 10.0073 49.4422 15.457 49.4422 26.3564C49.4422 37.2556 49.4422 42.7053 46.0093 46.0915C42.5761 49.4774 37.0507 49.4774 26 49.4774C14.9493 49.4774 9.42397 49.4774 5.99094 46.0915C2.55792 42.7053 2.55792 37.2556 2.55792 26.3564Z" stroke="#4886FF" stroke-width="4"/>
</svg>
