<svg width="52" height="52" viewBox="0 0 52 52" fill="none" xmlns="http://www.w3.org/2000/svg">
<path d="M2.55793 26.3564C2.55793 15.457 2.55793 10.0073 5.99094 6.62134C9.42398 3.23535 14.9493 3.23535 26.0001 3.23535C37.0507 3.23535 42.5761 3.23535 46.0093 6.62134C49.4422 10.0073 49.4422 15.457 49.4422 26.3564C49.4422 37.2556 49.4422 42.7053 46.0093 46.0915C42.5761 49.4774 37.0507 49.4774 26.0001 49.4774C14.9493 49.4774 9.42398 49.4774 5.99094 46.0915C2.55793 42.7053 2.55793 37.2556 2.55793 26.3564Z" stroke="#EBEBEB" stroke-width="4"/>
<path d="M26.9054 23H31.226H34.5001L24.8784 38L25.0001 29H21.3635H18.0001L26.9054 14V23ZM24.8784 25V21.22L21.3635 27L27.5001 27.5L26.9054 31.394L31.226 25H24.8784Z" fill="#EBEBEB"/>
<path d="M24.8784 25V21.22L21.3635 27L27.5001 27.5L26.9054 31.394L31.226 25H24.8784Z" fill="#EBEBEB"/>
</svg>
