<svg width="52" height="52" viewBox="0 0 52 52" fill="none" xmlns="http://www.w3.org/2000/svg">
<path d="M3 26.121C3 15.2217 3 9.772 6.43301 6.38599C9.86605 3 15.3914 3 26.4421 3C37.4927 3 43.0182 3 46.4513 6.38599C49.8843 9.772 49.8843 15.2217 49.8843 26.121C49.8843 37.0202 49.8843 42.47 46.4513 45.8561C43.0182 49.242 37.4927 49.242 26.4421 49.242C15.3914 49.242 9.86605 49.242 6.43301 45.8561C3 42.47 3 37.0202 3 26.121Z" stroke="#EBEBEB" stroke-width="4"/>
<path d="M34.6318 31.3847L26.5 39L18.3682 31.3847C16.7599 29.8786 15.6647 27.9596 15.221 25.8705C14.7772 23.7815 15.005 21.6161 15.8754 19.6482C16.7458 17.6803 18.2198 15.9984 20.111 14.815C22.0021 13.6316 24.2255 13 26.5 13C28.7745 13 30.9979 13.6316 32.889 14.815C34.7802 15.9984 36.2542 17.6803 37.1246 19.6482C37.995 21.6161 38.2228 23.7815 37.779 25.8705C37.3353 27.9596 36.2401 29.8786 34.6318 31.3847ZM26.5 26.1627C27.1778 26.1627 27.8278 25.9106 28.307 25.4617C28.7863 25.0129 29.0556 24.4042 29.0556 23.7695C29.0556 23.1347 28.7863 22.526 28.307 22.0772C27.8278 21.6284 27.1778 21.3762 26.5 21.3762C25.8222 21.3762 25.1722 21.6284 24.693 22.0772C24.2137 22.526 23.9444 23.1347 23.9444 23.7695C23.9444 24.4042 24.2137 25.0129 24.693 25.4617C25.1722 25.9106 25.8222 26.1627 26.5 26.1627Z" fill="#EBEBEB"/>
</svg>
