<svg width="52" height="52" viewBox="0 0 52 52" fill="none" xmlns="http://www.w3.org/2000/svg">
<path d="M23.366 25.682C24.3043 27.3305 25.6695 28.6957 27.318 29.634L28.202 28.396C28.3442 28.1969 28.5543 28.0569 28.7928 28.0023C29.0313 27.9478 29.2814 27.9825 29.496 28.1C30.9103 28.8729 32.4722 29.3378 34.079 29.464C34.3298 29.4839 34.5638 29.5975 34.7345 29.7823C34.9052 29.9671 35 30.2094 35 30.461V34.923C35.0001 35.1706 34.9083 35.4094 34.7424 35.5932C34.5765 35.777 34.3483 35.8927 34.102 35.918C33.572 35.973 33.038 36 32.5 36C23.94 36 17 29.06 17 20.5C17 19.962 17.027 19.428 17.082 18.898C17.1073 18.6517 17.223 18.4235 17.4068 18.2576C17.5906 18.0917 17.8294 17.9999 18.077 18H22.539C22.7906 18 23.0329 18.0948 23.2177 18.2655C23.4025 18.4361 23.5161 18.6702 23.536 18.921C23.6622 20.5278 24.1271 22.0897 24.9 23.504C25.0175 23.7186 25.0522 23.9687 24.9977 24.2072C24.9431 24.4456 24.8031 24.6558 24.604 24.798L23.366 25.682ZM20.844 25.025L22.744 23.668C22.2048 22.5041 21.8354 21.2688 21.647 20H19.01C19.004 20.166 19.001 20.333 19.001 20.5C19 27.956 25.044 34 32.5 34C32.667 34 32.834 33.997 33 33.99V31.353C31.7312 31.1646 30.4959 30.7952 29.332 30.256L27.975 32.156C27.4287 31.9437 26.898 31.6931 26.387 31.406L26.329 31.373C24.3676 30.2567 22.7433 28.6324 21.627 26.671L21.594 26.613C21.3069 26.102 21.0563 25.5713 20.844 25.025Z" fill="#EBEBEB"/>
<path d="M20.844 25.025L22.744 23.668C22.2048 22.5041 21.8354 21.2688 21.647 20H19.01C19.004 20.166 19.001 20.333 19.001 20.5C19 27.956 25.044 34 32.5 34C32.667 34 32.834 33.997 33 33.99V31.353C31.7312 31.1646 30.4959 30.7952 29.332 30.256L27.975 32.156C27.4287 31.9437 26.898 31.6931 26.387 31.406L26.329 31.373C24.3676 30.2567 22.7433 28.6324 21.627 26.671L21.594 26.613C21.3069 26.102 21.0563 25.5713 20.844 25.025Z" fill="#EBEBEB"/>
<path d="M2.55859 26.3564C2.55859 15.457 2.55859 10.0073 5.99161 6.62134C9.42464 3.23535 14.95 3.23535 26.0007 3.23535C37.0513 3.23535 42.5768 3.23535 46.0099 6.62134C49.4428 10.0073 49.4428 15.457 49.4428 26.3564C49.4428 37.2556 49.4428 42.7053 46.0099 46.0915C42.5768 49.4774 37.0513 49.4774 26.0007 49.4774C14.95 49.4774 9.42464 49.4774 5.99161 46.0915C2.55859 42.7053 2.55859 37.2556 2.55859 26.3564Z" stroke="#EBEBEB" stroke-width="4"/>
</svg>
