<svg width="52" height="52" viewBox="0 0 52 52" fill="none" xmlns="http://www.w3.org/2000/svg">
<path d="M28.4595 24.9596L35.8378 16.6396M29.5135 29.1196C29.5135 31.4172 27.6259 33.2796 25.2973 33.2796C22.9687 33.2796 21.0811 31.4172 21.0811 29.1196C21.0811 26.8221 22.9687 24.9596 25.2973 24.9596C27.6259 24.9596 29.5135 26.8221 29.5135 29.1196Z" stroke="#EBEBEB" stroke-width="4" stroke-linecap="round"/>
<path d="M2.55792 26.3564C2.55792 15.457 2.55792 10.0073 5.99094 6.62134C9.42397 3.23535 14.9493 3.23535 26 3.23535C37.0507 3.23535 42.5761 3.23535 46.0093 6.62134C49.4422 10.0073 49.4422 15.457 49.4422 26.3564C49.4422 37.2556 49.4422 42.7053 46.0093 46.0915C42.5761 49.4774 37.0507 49.4774 26 49.4774C14.9493 49.4774 9.42397 49.4774 5.99094 46.0915C2.55792 42.7053 2.55792 37.2556 2.55792 26.3564Z" stroke="#EBEBEB" stroke-width="4"/>
<path d="M24 11.4402C24 12.5447 24.8954 13.4402 26 13.4402C27.1046 13.4402 28 12.5447 28 11.4402H24ZM26 4.50684H24V11.4402H26H28V4.50684H26Z" fill="#EBEBEB"/>
<path d="M24 41.5999C24 40.4953 24.8954 39.5999 26 39.5999C27.1046 39.5999 28 40.4953 28 41.5999H24ZM26 48.5332H24V41.5999H26H28V48.5332H26Z" fill="#EBEBEB"/>
<path d="M9.83783 25.7334C10.9424 25.7334 11.8378 26.6288 11.8378 27.7334C11.8378 28.838 10.9424 29.7334 9.83783 29.7334V25.7334ZM2.81081 27.7334V25.7334H9.83783V27.7334V29.7334H2.81081V27.7334Z" fill="#EBEBEB"/>
<path d="M42.8649 29.7334C41.7603 29.7334 40.8649 28.838 40.8649 27.7334C40.8649 26.6288 41.7603 25.7334 42.8649 25.7334V29.7334ZM49.8919 27.7334V29.7334H42.8649V27.7334V25.7334H49.8919V27.7334Z" fill="#EBEBEB"/>
</svg>
