<svg width="808" height="459" viewBox="0 0 808 459" fill="none" xmlns="http://www.w3.org/2000/svg">
<g filter="url(#filter0_d_2116_51)">
<path d="M48 128.275C48 80.6265 86.6265 42 134.275 42H458.725C506.374 42 545 80.6265 545 128.275V128.275C545 175.923 506.374 214.549 458.725 214.549H435H411H134.275C86.6265 214.549 48 175.923 48 128.275V128.275Z" fill="#4886FF"/>
<path d="M423.66 228.912C424.564 229.938 426.208 229.774 426.892 228.59L435 214.549H411L423.66 228.912Z" fill="#4886FF"/>
</g>
<path d="M143.484 108.516H147.781C147.667 110.036 147.245 111.385 146.516 112.562C145.786 113.729 144.771 114.646 143.469 115.312C142.167 115.979 140.589 116.312 138.734 116.312C137.307 116.312 136.021 116.062 134.875 115.562C133.74 115.052 132.766 114.328 131.953 113.391C131.151 112.443 130.536 111.307 130.109 109.984C129.682 108.651 129.469 107.156 129.469 105.5V103.766C129.469 102.109 129.688 100.615 130.125 99.2812C130.562 97.9479 131.188 96.8125 132 95.875C132.823 94.9271 133.807 94.1979 134.953 93.6875C136.109 93.1771 137.401 92.9219 138.828 92.9219C140.682 92.9219 142.25 93.2656 143.531 93.9531C144.812 94.6302 145.807 95.5625 146.516 96.75C147.224 97.9375 147.651 99.3021 147.797 100.844H143.5C143.417 99.8854 143.208 99.0729 142.875 98.4062C142.552 97.7396 142.062 97.2344 141.406 96.8906C140.76 96.5365 139.901 96.3594 138.828 96.3594C137.995 96.3594 137.26 96.5156 136.625 96.8281C136 97.1406 135.479 97.6094 135.062 98.2344C134.646 98.849 134.333 99.6198 134.125 100.547C133.917 101.464 133.812 102.526 133.812 103.734V105.5C133.812 106.656 133.906 107.693 134.094 108.609C134.281 109.526 134.573 110.302 134.969 110.938C135.365 111.573 135.875 112.057 136.5 112.391C137.125 112.724 137.87 112.891 138.734 112.891C139.786 112.891 140.641 112.724 141.297 112.391C141.964 112.057 142.469 111.568 142.812 110.922C143.167 110.276 143.391 109.474 143.484 108.516ZM170.312 106.031V109.266H161.641V106.031H170.312ZM162.938 99.0938V116H158.797V99.0938H162.938ZM173.203 99.0938V116H169.047V99.0938H173.203ZM186.266 112.406V104.609C186.266 104.036 186.167 103.542 185.969 103.125C185.771 102.708 185.469 102.385 185.062 102.156C184.656 101.927 184.141 101.812 183.516 101.812C182.964 101.812 182.479 101.906 182.062 102.094C181.656 102.281 181.344 102.547 181.125 102.891C180.906 103.224 180.797 103.609 180.797 104.047H176.656C176.656 103.349 176.823 102.688 177.156 102.062C177.49 101.427 177.964 100.865 178.578 100.375C179.203 99.875 179.948 99.4844 180.812 99.2031C181.688 98.9219 182.667 98.7812 183.75 98.7812C185.031 98.7812 186.172 99 187.172 99.4375C188.182 99.8646 188.974 100.51 189.547 101.375C190.13 102.24 190.422 103.328 190.422 104.641V112.016C190.422 112.859 190.474 113.583 190.578 114.188C190.693 114.781 190.859 115.297 191.078 115.734V116H186.875C186.677 115.573 186.526 115.031 186.422 114.375C186.318 113.708 186.266 113.052 186.266 112.406ZM186.844 105.703L186.875 108.156H184.266C183.62 108.156 183.052 108.224 182.562 108.359C182.073 108.484 181.672 108.672 181.359 108.922C181.047 109.161 180.812 109.453 180.656 109.797C180.5 110.13 180.422 110.51 180.422 110.938C180.422 111.354 180.516 111.729 180.703 112.062C180.901 112.396 181.182 112.661 181.547 112.859C181.922 113.047 182.359 113.141 182.859 113.141C183.589 113.141 184.224 112.995 184.766 112.703C185.307 112.401 185.729 112.036 186.031 111.609C186.333 111.182 186.495 110.776 186.516 110.391L187.703 112.172C187.557 112.599 187.339 113.052 187.047 113.531C186.755 114.01 186.38 114.458 185.922 114.875C185.464 115.292 184.911 115.635 184.266 115.906C183.62 116.177 182.87 116.312 182.016 116.312C180.922 116.312 179.943 116.094 179.078 115.656C178.214 115.219 177.531 114.62 177.031 113.859C176.531 113.099 176.281 112.234 176.281 111.266C176.281 110.37 176.448 109.578 176.781 108.891C177.115 108.203 177.609 107.625 178.266 107.156C178.922 106.677 179.734 106.318 180.703 106.078C181.682 105.828 182.802 105.703 184.062 105.703H186.844ZM204.281 111.125L209.031 99.0938H212.484L205.688 116H202.891L196.109 99.0938H199.578L204.281 111.125ZM198.562 99.0938V116H194.422V99.0938H198.562ZM210.078 116V99.0938H214.219V116H210.078ZM222.5 110.109L228.656 99.0938H232.797V116H228.656V104.969L222.5 116H218.359V99.0938H222.5V110.109ZM251.766 107.938H248.469V105.969H250.984C251.599 105.969 252.089 105.885 252.453 105.719C252.828 105.552 253.094 105.318 253.25 105.016C253.417 104.714 253.5 104.365 253.5 103.969C253.5 103.615 253.422 103.281 253.266 102.969C253.109 102.646 252.849 102.385 252.484 102.188C252.12 101.979 251.615 101.875 250.969 101.875C250.438 101.875 249.964 101.958 249.547 102.125C249.13 102.292 248.802 102.526 248.562 102.828C248.323 103.13 248.203 103.49 248.203 103.906H244.062C244.062 102.844 244.365 101.932 244.969 101.172C245.583 100.411 246.401 99.8281 247.422 99.4219C248.443 99.0052 249.562 98.7969 250.781 98.7969C251.833 98.7969 252.781 98.9062 253.625 99.125C254.469 99.3333 255.188 99.6458 255.781 100.062C256.375 100.479 256.833 100.995 257.156 101.609C257.479 102.214 257.641 102.917 257.641 103.719C257.641 104.292 257.505 104.833 257.234 105.344C256.964 105.854 256.573 106.307 256.062 106.703C255.552 107.089 254.932 107.391 254.203 107.609C253.484 107.828 252.672 107.938 251.766 107.938ZM248.469 106.812H251.766C252.776 106.812 253.661 106.911 254.422 107.109C255.193 107.297 255.839 107.578 256.359 107.953C256.88 108.328 257.271 108.792 257.531 109.344C257.802 109.885 257.938 110.51 257.938 111.219C257.938 112.021 257.76 112.74 257.406 113.375C257.062 114 256.573 114.531 255.938 114.969C255.302 115.406 254.547 115.74 253.672 115.969C252.797 116.198 251.833 116.312 250.781 116.312C249.646 116.312 248.542 116.125 247.469 115.75C246.406 115.375 245.526 114.797 244.828 114.016C244.141 113.234 243.797 112.229 243.797 111H247.938C247.938 111.396 248.057 111.766 248.297 112.109C248.536 112.453 248.88 112.729 249.328 112.938C249.786 113.135 250.339 113.234 250.984 113.234C251.641 113.234 252.177 113.13 252.594 112.922C253.01 112.714 253.312 112.438 253.5 112.094C253.698 111.74 253.797 111.37 253.797 110.984C253.797 110.453 253.693 110.026 253.484 109.703C253.286 109.37 252.974 109.125 252.547 108.969C252.13 108.812 251.609 108.734 250.984 108.734H248.469V106.812ZM270.234 112.406V104.609C270.234 104.036 270.135 103.542 269.938 103.125C269.74 102.708 269.438 102.385 269.031 102.156C268.625 101.927 268.109 101.812 267.484 101.812C266.932 101.812 266.448 101.906 266.031 102.094C265.625 102.281 265.312 102.547 265.094 102.891C264.875 103.224 264.766 103.609 264.766 104.047H260.625C260.625 103.349 260.792 102.688 261.125 102.062C261.458 101.427 261.932 100.865 262.547 100.375C263.172 99.875 263.917 99.4844 264.781 99.2031C265.656 98.9219 266.635 98.7812 267.719 98.7812C269 98.7812 270.141 99 271.141 99.4375C272.151 99.8646 272.943 100.51 273.516 101.375C274.099 102.24 274.391 103.328 274.391 104.641V112.016C274.391 112.859 274.443 113.583 274.547 114.188C274.661 114.781 274.828 115.297 275.047 115.734V116H270.844C270.646 115.573 270.495 115.031 270.391 114.375C270.286 113.708 270.234 113.052 270.234 112.406ZM270.812 105.703L270.844 108.156H268.234C267.589 108.156 267.021 108.224 266.531 108.359C266.042 108.484 265.641 108.672 265.328 108.922C265.016 109.161 264.781 109.453 264.625 109.797C264.469 110.13 264.391 110.51 264.391 110.938C264.391 111.354 264.484 111.729 264.672 112.062C264.87 112.396 265.151 112.661 265.516 112.859C265.891 113.047 266.328 113.141 266.828 113.141C267.557 113.141 268.193 112.995 268.734 112.703C269.276 112.401 269.698 112.036 270 111.609C270.302 111.182 270.464 110.776 270.484 110.391L271.672 112.172C271.526 112.599 271.307 113.052 271.016 113.531C270.724 114.01 270.349 114.458 269.891 114.875C269.432 115.292 268.88 115.635 268.234 115.906C267.589 116.177 266.839 116.312 265.984 116.312C264.891 116.312 263.911 116.094 263.047 115.656C262.182 115.219 261.5 114.62 261 113.859C260.5 113.099 260.25 112.234 260.25 111.266C260.25 110.37 260.417 109.578 260.75 108.891C261.083 108.203 261.578 107.625 262.234 107.156C262.891 106.677 263.703 106.318 264.672 106.078C265.651 105.828 266.771 105.703 268.031 105.703H270.812ZM282.234 102.344V122.5H278.094V99.0938H281.922L282.234 102.344ZM293.094 107.375V107.703C293.094 108.932 292.948 110.073 292.656 111.125C292.375 112.167 291.958 113.078 291.406 113.859C290.854 114.63 290.167 115.234 289.344 115.672C288.531 116.099 287.594 116.312 286.531 116.312C285.49 116.312 284.583 116.115 283.812 115.719C283.042 115.312 282.391 114.74 281.859 114C281.328 113.26 280.901 112.401 280.578 111.422C280.266 110.432 280.031 109.354 279.875 108.188V107.141C280.031 105.901 280.266 104.776 280.578 103.766C280.901 102.745 281.328 101.865 281.859 101.125C282.391 100.375 283.036 99.7969 283.797 99.3906C284.568 98.9844 285.469 98.7812 286.5 98.7812C287.573 98.7812 288.516 98.9844 289.328 99.3906C290.151 99.7969 290.844 100.38 291.406 101.141C291.969 101.901 292.391 102.807 292.672 103.859C292.953 104.911 293.094 106.083 293.094 107.375ZM288.953 107.703V107.375C288.953 106.625 288.885 105.932 288.75 105.297C288.615 104.651 288.406 104.089 288.125 103.609C287.844 103.12 287.479 102.74 287.031 102.469C286.583 102.198 286.042 102.062 285.406 102.062C284.771 102.062 284.224 102.167 283.766 102.375C283.307 102.583 282.932 102.88 282.641 103.266C282.349 103.651 282.12 104.109 281.953 104.641C281.797 105.161 281.693 105.74 281.641 106.375V108.969C281.734 109.74 281.917 110.432 282.188 111.047C282.458 111.661 282.854 112.151 283.375 112.516C283.906 112.88 284.594 113.062 285.438 113.062C286.073 113.062 286.615 112.922 287.062 112.641C287.51 112.359 287.875 111.974 288.156 111.484C288.438 110.984 288.641 110.411 288.766 109.766C288.891 109.12 288.953 108.432 288.953 107.703ZM305.422 112.406V104.609C305.422 104.036 305.323 103.542 305.125 103.125C304.927 102.708 304.625 102.385 304.219 102.156C303.812 101.927 303.297 101.812 302.672 101.812C302.12 101.812 301.635 101.906 301.219 102.094C300.812 102.281 300.5 102.547 300.281 102.891C300.062 103.224 299.953 103.609 299.953 104.047H295.812C295.812 103.349 295.979 102.688 296.312 102.062C296.646 101.427 297.12 100.865 297.734 100.375C298.359 99.875 299.104 99.4844 299.969 99.2031C300.844 98.9219 301.823 98.7812 302.906 98.7812C304.188 98.7812 305.328 99 306.328 99.4375C307.339 99.8646 308.13 100.51 308.703 101.375C309.286 102.24 309.578 103.328 309.578 104.641V112.016C309.578 112.859 309.63 113.583 309.734 114.188C309.849 114.781 310.016 115.297 310.234 115.734V116H306.031C305.833 115.573 305.682 115.031 305.578 114.375C305.474 113.708 305.422 113.052 305.422 112.406ZM306 105.703L306.031 108.156H303.422C302.776 108.156 302.208 108.224 301.719 108.359C301.229 108.484 300.828 108.672 300.516 108.922C300.203 109.161 299.969 109.453 299.812 109.797C299.656 110.13 299.578 110.51 299.578 110.938C299.578 111.354 299.672 111.729 299.859 112.062C300.057 112.396 300.339 112.661 300.703 112.859C301.078 113.047 301.516 113.141 302.016 113.141C302.745 113.141 303.38 112.995 303.922 112.703C304.464 112.401 304.885 112.036 305.188 111.609C305.49 111.182 305.651 110.776 305.672 110.391L306.859 112.172C306.714 112.599 306.495 113.052 306.203 113.531C305.911 114.01 305.536 114.458 305.078 114.875C304.62 115.292 304.068 115.635 303.422 115.906C302.776 116.177 302.026 116.312 301.172 116.312C300.078 116.312 299.099 116.094 298.234 115.656C297.37 115.219 296.688 114.62 296.188 113.859C295.688 113.099 295.438 112.234 295.438 111.266C295.438 110.37 295.604 109.578 295.938 108.891C296.271 108.203 296.766 107.625 297.422 107.156C298.078 106.677 298.891 106.318 299.859 106.078C300.839 105.828 301.958 105.703 303.219 105.703H306ZM323.766 91.6719H327.109C327.109 92.5573 326.995 93.3021 326.766 93.9062C326.536 94.5 326.182 95 325.703 95.4062C325.224 95.8021 324.609 96.1302 323.859 96.3906C323.109 96.651 322.214 96.8802 321.172 97.0781C320.297 97.2552 319.526 97.5469 318.859 97.9531C318.193 98.3594 317.635 98.9167 317.188 99.625C316.75 100.333 316.432 101.234 316.234 102.328C316.036 103.422 315.974 104.74 316.047 106.281V107.188L312.812 107.562V106.656C312.812 104.646 312.995 102.896 313.359 101.406C313.724 99.9062 314.24 98.6458 314.906 97.625C315.573 96.5938 316.37 95.776 317.297 95.1719C318.234 94.5573 319.281 94.125 320.438 93.875C321.208 93.7188 321.839 93.5573 322.328 93.3906C322.828 93.224 323.193 93.0104 323.422 92.75C323.651 92.4792 323.766 92.1198 323.766 91.6719ZM321.453 100.047C322.589 100.047 323.594 100.245 324.469 100.641C325.354 101.026 326.099 101.573 326.703 102.281C327.307 102.979 327.766 103.807 328.078 104.766C328.401 105.714 328.562 106.75 328.562 107.875V108.203C328.562 109.37 328.385 110.448 328.031 111.438C327.688 112.427 327.182 113.286 326.516 114.016C325.849 114.745 325.026 115.312 324.047 115.719C323.068 116.125 321.948 116.328 320.688 116.328C319.438 116.328 318.323 116.115 317.344 115.688C316.365 115.25 315.536 114.646 314.859 113.875C314.182 113.104 313.672 112.198 313.328 111.156C312.984 110.104 312.812 108.958 312.812 107.719V107.391C312.802 107.182 312.87 106.984 313.016 106.797C313.161 106.609 313.333 106.401 313.531 106.172C313.74 105.943 313.927 105.667 314.094 105.344C314.667 104.24 315.312 103.292 316.031 102.5C316.76 101.708 317.573 101.104 318.469 100.688C319.365 100.26 320.359 100.047 321.453 100.047ZM320.656 103.297C319.771 103.297 319.052 103.51 318.5 103.938C317.958 104.354 317.562 104.911 317.312 105.609C317.062 106.297 316.938 107.052 316.938 107.875V108.203C316.938 108.87 317.005 109.5 317.141 110.094C317.286 110.677 317.505 111.193 317.797 111.641C318.089 112.089 318.474 112.443 318.953 112.703C319.432 112.953 320.01 113.078 320.688 113.078C321.365 113.078 321.938 112.953 322.406 112.703C322.885 112.443 323.271 112.089 323.562 111.641C323.854 111.193 324.068 110.677 324.203 110.094C324.349 109.5 324.422 108.87 324.422 108.203V107.875C324.422 107.26 324.349 106.677 324.203 106.125C324.068 105.573 323.854 105.089 323.562 104.672C323.271 104.245 322.88 103.911 322.391 103.672C321.911 103.422 321.333 103.297 320.656 103.297ZM330.688 107.719V107.391C330.688 106.151 330.865 105.01 331.219 103.969C331.573 102.917 332.089 102.005 332.766 101.234C333.443 100.464 334.271 99.8646 335.25 99.4375C336.229 99 337.344 98.7812 338.594 98.7812C339.865 98.7812 340.99 99 341.969 99.4375C342.958 99.8646 343.792 100.464 344.469 101.234C345.146 102.005 345.661 102.917 346.016 103.969C346.37 105.01 346.547 106.151 346.547 107.391V107.719C346.547 108.948 346.37 110.089 346.016 111.141C345.661 112.182 345.146 113.094 344.469 113.875C343.792 114.646 342.964 115.245 341.984 115.672C341.005 116.099 339.885 116.312 338.625 116.312C337.375 116.312 336.255 116.099 335.266 115.672C334.276 115.245 333.443 114.646 332.766 113.875C332.089 113.094 331.573 112.182 331.219 111.141C330.865 110.089 330.688 108.948 330.688 107.719ZM334.812 107.391V107.719C334.812 108.458 334.885 109.151 335.031 109.797C335.177 110.443 335.401 111.01 335.703 111.5C336.005 111.99 336.396 112.375 336.875 112.656C337.365 112.927 337.948 113.062 338.625 113.062C339.292 113.062 339.865 112.927 340.344 112.656C340.823 112.375 341.214 111.99 341.516 111.5C341.828 111.01 342.057 110.443 342.203 109.797C342.349 109.151 342.422 108.458 342.422 107.719V107.391C342.422 106.661 342.349 105.979 342.203 105.344C342.057 104.698 341.828 104.13 341.516 103.641C341.214 103.141 340.818 102.75 340.328 102.469C339.849 102.177 339.271 102.031 338.594 102.031C337.927 102.031 337.354 102.177 336.875 102.469C336.396 102.75 336.005 103.141 335.703 103.641C335.401 104.13 335.177 104.698 335.031 105.344C334.885 105.979 334.812 106.661 334.812 107.391ZM357.344 99.0938V116H353.203V99.0938H357.344ZM362.844 99.0938V102.312H347.797V99.0938H362.844ZM374.328 112.406V104.609C374.328 104.036 374.229 103.542 374.031 103.125C373.833 102.708 373.531 102.385 373.125 102.156C372.719 101.927 372.203 101.812 371.578 101.812C371.026 101.812 370.542 101.906 370.125 102.094C369.719 102.281 369.406 102.547 369.188 102.891C368.969 103.224 368.859 103.609 368.859 104.047H364.719C364.719 103.349 364.885 102.688 365.219 102.062C365.552 101.427 366.026 100.865 366.641 100.375C367.266 99.875 368.01 99.4844 368.875 99.2031C369.75 98.9219 370.729 98.7812 371.812 98.7812C373.094 98.7812 374.234 99 375.234 99.4375C376.245 99.8646 377.036 100.51 377.609 101.375C378.193 102.24 378.484 103.328 378.484 104.641V112.016C378.484 112.859 378.536 113.583 378.641 114.188C378.755 114.781 378.922 115.297 379.141 115.734V116H374.938C374.74 115.573 374.589 115.031 374.484 114.375C374.38 113.708 374.328 113.052 374.328 112.406ZM374.906 105.703L374.938 108.156H372.328C371.682 108.156 371.115 108.224 370.625 108.359C370.135 108.484 369.734 108.672 369.422 108.922C369.109 109.161 368.875 109.453 368.719 109.797C368.562 110.13 368.484 110.51 368.484 110.938C368.484 111.354 368.578 111.729 368.766 112.062C368.964 112.396 369.245 112.661 369.609 112.859C369.984 113.047 370.422 113.141 370.922 113.141C371.651 113.141 372.286 112.995 372.828 112.703C373.37 112.401 373.792 112.036 374.094 111.609C374.396 111.182 374.557 110.776 374.578 110.391L375.766 112.172C375.62 112.599 375.401 113.052 375.109 113.531C374.818 114.01 374.443 114.458 373.984 114.875C373.526 115.292 372.974 115.635 372.328 115.906C371.682 116.177 370.932 116.312 370.078 116.312C368.984 116.312 368.005 116.094 367.141 115.656C366.276 115.219 365.594 114.62 365.094 113.859C364.594 113.099 364.344 112.234 364.344 111.266C364.344 110.37 364.51 109.578 364.844 108.891C365.177 108.203 365.672 107.625 366.328 107.156C366.984 106.677 367.797 106.318 368.766 106.078C369.745 105.828 370.865 105.703 372.125 105.703H374.906ZM390.156 99.0938V116H386.016V99.0938H390.156ZM395.656 99.0938V102.312H380.609V99.0938H395.656ZM401.016 104.297H405.953C407.453 104.297 408.729 104.547 409.781 105.047C410.844 105.536 411.651 106.224 412.203 107.109C412.766 107.984 413.047 109 413.047 110.156C413.047 110.99 412.885 111.766 412.562 112.484C412.25 113.193 411.792 113.812 411.188 114.344C410.583 114.865 409.839 115.271 408.953 115.562C408.078 115.854 407.078 116 405.953 116H398.359V99.0938H402.5V112.766H405.953C406.672 112.766 407.245 112.646 407.672 112.406C408.109 112.156 408.422 111.839 408.609 111.453C408.807 111.057 408.906 110.635 408.906 110.188C408.906 109.729 408.807 109.302 408.609 108.906C408.422 108.5 408.109 108.172 407.672 107.922C407.245 107.672 406.672 107.547 405.953 107.547H401.016V104.297ZM137.453 152.312C136.172 152.312 135.021 152.104 134 151.688C132.979 151.271 132.109 150.693 131.391 149.953C130.682 149.203 130.135 148.333 129.75 147.344C129.375 146.344 129.188 145.271 129.188 144.125V143.5C129.188 142.198 129.375 141.016 129.75 139.953C130.125 138.88 130.656 137.958 131.344 137.188C132.031 136.417 132.854 135.823 133.812 135.406C134.771 134.99 135.828 134.781 136.984 134.781C138.182 134.781 139.24 134.984 140.156 135.391C141.073 135.786 141.839 136.349 142.453 137.078C143.068 137.807 143.531 138.682 143.844 139.703C144.156 140.714 144.312 141.833 144.312 143.062V144.797H131.062V141.953H140.25V141.641C140.229 140.984 140.104 140.385 139.875 139.844C139.646 139.292 139.292 138.854 138.812 138.531C138.333 138.198 137.714 138.031 136.953 138.031C136.339 138.031 135.802 138.167 135.344 138.438C134.896 138.698 134.521 139.073 134.219 139.562C133.927 140.042 133.708 140.615 133.562 141.281C133.417 141.948 133.344 142.688 133.344 143.5V144.125C133.344 144.833 133.438 145.49 133.625 146.094C133.823 146.698 134.109 147.224 134.484 147.672C134.87 148.109 135.328 148.453 135.859 148.703C136.401 148.943 137.016 149.062 137.703 149.062C138.568 149.062 139.349 148.896 140.047 148.562C140.755 148.219 141.37 147.714 141.891 147.047L143.969 149.203C143.615 149.724 143.135 150.224 142.531 150.703C141.938 151.182 141.219 151.573 140.375 151.875C139.531 152.167 138.557 152.312 137.453 152.312ZM172.656 148.766L172.359 157.016H168.531V152H166.562V148.766H172.656ZM147.047 135.094H151.172V148.75H156.203V135.094H160.344V148.75H165.359V135.094H169.5V152H147.047V135.094ZM182.922 152.312C181.641 152.312 180.49 152.104 179.469 151.688C178.448 151.271 177.578 150.693 176.859 149.953C176.151 149.203 175.604 148.333 175.219 147.344C174.844 146.344 174.656 145.271 174.656 144.125V143.5C174.656 142.198 174.844 141.016 175.219 139.953C175.594 138.88 176.125 137.958 176.812 137.188C177.5 136.417 178.323 135.823 179.281 135.406C180.24 134.99 181.297 134.781 182.453 134.781C183.651 134.781 184.708 134.984 185.625 135.391C186.542 135.786 187.307 136.349 187.922 137.078C188.536 137.807 189 138.682 189.312 139.703C189.625 140.714 189.781 141.833 189.781 143.062V144.797H176.531V141.953H185.719V141.641C185.698 140.984 185.573 140.385 185.344 139.844C185.115 139.292 184.76 138.854 184.281 138.531C183.802 138.198 183.182 138.031 182.422 138.031C181.807 138.031 181.271 138.167 180.812 138.438C180.365 138.698 179.99 139.073 179.688 139.562C179.396 140.042 179.177 140.615 179.031 141.281C178.885 141.948 178.812 142.688 178.812 143.5V144.125C178.812 144.833 178.906 145.49 179.094 146.094C179.292 146.698 179.578 147.224 179.953 147.672C180.339 148.109 180.797 148.453 181.328 148.703C181.87 148.943 182.484 149.062 183.172 149.062C184.036 149.062 184.818 148.896 185.516 148.562C186.224 148.219 186.839 147.714 187.359 147.047L189.438 149.203C189.083 149.724 188.604 150.224 188 150.703C187.406 151.182 186.688 151.573 185.844 151.875C185 152.167 184.026 152.312 182.922 152.312ZM211.859 135.094V138.359H203.594V135.094H211.859ZM204.688 135.094V152H200.547V135.094H204.688ZM214.984 135.094V152H210.828V135.094H214.984ZM222.859 138.344V158.5H218.719V135.094H222.547L222.859 138.344ZM233.719 143.375V143.703C233.719 144.932 233.573 146.073 233.281 147.125C233 148.167 232.583 149.078 232.031 149.859C231.479 150.63 230.792 151.234 229.969 151.672C229.156 152.099 228.219 152.312 227.156 152.312C226.115 152.312 225.208 152.115 224.438 151.719C223.667 151.312 223.016 150.74 222.484 150C221.953 149.26 221.526 148.401 221.203 147.422C220.891 146.432 220.656 145.354 220.5 144.188V143.141C220.656 141.901 220.891 140.776 221.203 139.766C221.526 138.745 221.953 137.865 222.484 137.125C223.016 136.375 223.661 135.797 224.422 135.391C225.193 134.984 226.094 134.781 227.125 134.781C228.198 134.781 229.141 134.984 229.953 135.391C230.776 135.797 231.469 136.38 232.031 137.141C232.594 137.901 233.016 138.807 233.297 139.859C233.578 140.911 233.719 142.083 233.719 143.375ZM229.578 143.703V143.375C229.578 142.625 229.51 141.932 229.375 141.297C229.24 140.651 229.031 140.089 228.75 139.609C228.469 139.12 228.104 138.74 227.656 138.469C227.208 138.198 226.667 138.062 226.031 138.062C225.396 138.062 224.849 138.167 224.391 138.375C223.932 138.583 223.557 138.88 223.266 139.266C222.974 139.651 222.745 140.109 222.578 140.641C222.422 141.161 222.318 141.74 222.266 142.375V144.969C222.359 145.74 222.542 146.432 222.812 147.047C223.083 147.661 223.479 148.151 224 148.516C224.531 148.88 225.219 149.062 226.062 149.062C226.698 149.062 227.24 148.922 227.688 148.641C228.135 148.359 228.5 147.974 228.781 147.484C229.062 146.984 229.266 146.411 229.391 145.766C229.516 145.12 229.578 144.432 229.578 143.703ZM236 143.719V143.391C236 142.151 236.177 141.01 236.531 139.969C236.885 138.917 237.401 138.005 238.078 137.234C238.755 136.464 239.583 135.865 240.562 135.438C241.542 135 242.656 134.781 243.906 134.781C245.177 134.781 246.302 135 247.281 135.438C248.271 135.865 249.104 136.464 249.781 137.234C250.458 138.005 250.974 138.917 251.328 139.969C251.682 141.01 251.859 142.151 251.859 143.391V143.719C251.859 144.948 251.682 146.089 251.328 147.141C250.974 148.182 250.458 149.094 249.781 149.875C249.104 150.646 248.276 151.245 247.297 151.672C246.318 152.099 245.198 152.312 243.938 152.312C242.688 152.312 241.568 152.099 240.578 151.672C239.589 151.245 238.755 150.646 238.078 149.875C237.401 149.094 236.885 148.182 236.531 147.141C236.177 146.089 236 144.948 236 143.719ZM240.125 143.391V143.719C240.125 144.458 240.198 145.151 240.344 145.797C240.49 146.443 240.714 147.01 241.016 147.5C241.318 147.99 241.708 148.375 242.188 148.656C242.677 148.927 243.26 149.062 243.938 149.062C244.604 149.062 245.177 148.927 245.656 148.656C246.135 148.375 246.526 147.99 246.828 147.5C247.141 147.01 247.37 146.443 247.516 145.797C247.661 145.151 247.734 144.458 247.734 143.719V143.391C247.734 142.661 247.661 141.979 247.516 141.344C247.37 140.698 247.141 140.13 246.828 139.641C246.526 139.141 246.13 138.75 245.641 138.469C245.161 138.177 244.583 138.031 243.906 138.031C243.24 138.031 242.667 138.177 242.188 138.469C241.708 138.75 241.318 139.141 241.016 139.641C240.714 140.13 240.49 140.698 240.344 141.344C240.198 141.979 240.125 142.661 240.125 143.391ZM280.438 148.766L280.141 157.016H276.312V152H274.344V148.766H280.438ZM254.828 135.094H258.953V148.75H263.984V135.094H268.125V148.75H273.141V135.094H277.281V152H254.828V135.094ZM290.703 152.312C289.422 152.312 288.271 152.104 287.25 151.688C286.229 151.271 285.359 150.693 284.641 149.953C283.932 149.203 283.385 148.333 283 147.344C282.625 146.344 282.438 145.271 282.438 144.125V143.5C282.438 142.198 282.625 141.016 283 139.953C283.375 138.88 283.906 137.958 284.594 137.188C285.281 136.417 286.104 135.823 287.062 135.406C288.021 134.99 289.078 134.781 290.234 134.781C291.432 134.781 292.49 134.984 293.406 135.391C294.323 135.786 295.089 136.349 295.703 137.078C296.318 137.807 296.781 138.682 297.094 139.703C297.406 140.714 297.562 141.833 297.562 143.062V144.797H284.312V141.953H293.5V141.641C293.479 140.984 293.354 140.385 293.125 139.844C292.896 139.292 292.542 138.854 292.062 138.531C291.583 138.198 290.964 138.031 290.203 138.031C289.589 138.031 289.052 138.167 288.594 138.438C288.146 138.698 287.771 139.073 287.469 139.562C287.177 140.042 286.958 140.615 286.812 141.281C286.667 141.948 286.594 142.688 286.594 143.5V144.125C286.594 144.833 286.688 145.49 286.875 146.094C287.073 146.698 287.359 147.224 287.734 147.672C288.12 148.109 288.578 148.453 289.109 148.703C289.651 148.943 290.266 149.062 290.953 149.062C291.818 149.062 292.599 148.896 293.297 148.562C294.005 148.219 294.62 147.714 295.141 147.047L297.219 149.203C296.865 149.724 296.385 150.224 295.781 150.703C295.188 151.182 294.469 151.573 293.625 151.875C292.781 152.167 291.807 152.312 290.703 152.312ZM305.031 129.25L304.578 145.172H301.094L300.641 129.25H305.031ZM300.516 150.078C300.516 149.464 300.724 148.948 301.141 148.531C301.568 148.104 302.141 147.891 302.859 147.891C303.578 147.891 304.146 148.104 304.562 148.531C304.99 148.948 305.203 149.464 305.203 150.078C305.203 150.682 304.99 151.193 304.562 151.609C304.146 152.026 303.578 152.234 302.859 152.234C302.141 152.234 301.568 152.026 301.141 151.609C300.724 151.193 300.516 150.682 300.516 150.078Z" fill="white"/>
<path d="M623.47 232.82C624.044 225.376 626.92 214.781 628.519 207.266C629.116 204.462 630.276 203.426 633.098 202.936L684.903 202.922C689.167 202.917 696.498 201.672 697.61 207.335C699.002 214.429 701.939 225.781 702.166 232.82L729.155 232.813C734.259 232.813 746.142 231.073 748.351 236.694C752.038 246.084 755.1 255.8 758.565 265.257L770.649 298.701C772.077 302.705 774.976 309.402 775.598 313.5C794.231 318.345 807.142 336.991 807.229 355.924L807.266 408.145C807.337 420.389 807.526 420.554 795.035 420.553L780.947 420.542L780.962 433.189C780.976 447.779 779.396 457.981 760.836 458.04L749.229 458.044C729.678 458.045 725.083 452.295 725.102 433.093L725.115 420.542H693.412H600.579L600.607 421.357C600.853 430.773 602.121 446.359 595.59 453.008C589.754 459.056 581.78 458.253 574.055 458.029C565.17 457.771 556.508 460.101 549.425 452.979C543.64 447.164 544.277 440.654 544.277 433.134L544.289 420.542L531.822 420.56C520.017 420.644 518.659 420.79 518.698 408.385L518.716 367.265C518.714 361.678 518.512 354.765 519.252 349.361C521.29 334.492 534.427 317.509 549.566 314.314C550.854 311.122 551.974 307.566 553.091 304.289L558.073 289.985C559.772 285.178 577.179 235.98 578.949 234.175C581.484 231.59 591.075 232.81 594.633 232.811L623.47 232.82ZM638.99 214.158C637.527 219.674 636.151 227.247 635.244 232.82H686.733H690.637L688.329 220.122C688.028 218.407 687.501 215.84 687.328 214.158H638.99ZM609.527 244.319H587.007C578.283 266.501 571.448 290.127 562.449 311.946H674.221C678.298 292.14 696.597 282.4 715.656 287.848C725.396 291.348 736.82 300.77 736.926 311.946H763.256C761.237 306.754 759.681 301.824 757.802 296.616L741.429 251.451C740.699 249.439 739.477 246.317 738.909 244.319H609.527ZM705.063 297.912C696.141 298.451 688.71 303.074 686.09 311.946H706.787H725.115C722.607 303.059 714.087 297.735 705.063 297.912ZM729.509 323.549L576.287 323.544C562.468 323.542 550.314 322.025 539.826 332.938C528.165 345.073 530.314 358.766 530.314 374.384L530.315 409.074H596.998H795.895L795.889 373.251C795.898 358.206 797.82 343.649 785.96 332.127C776.258 322.703 767.077 323.536 754.673 323.544L729.509 323.549ZM736.926 420.542L736.908 434.122C736.891 450.383 740.492 445.595 754.974 446.702C758.765 446.992 764.486 447.275 767.629 444.988C770.927 440.552 769.694 426.258 769.619 420.542C766.335 420.385 762.142 420.538 758.757 420.541L736.926 420.542ZM555.859 420.542L555.845 434.272C555.842 437.555 555.159 445.957 560.337 446.461C565.389 446.952 583.174 448.205 587.007 444.988C589.73 441.583 589.01 437.596 589.005 433.427L588.984 420.542H555.859Z" fill="#4886FF"/>
<path d="M729.509 323.549L576.287 323.544C562.468 323.542 550.314 322.025 539.826 332.938C528.165 345.073 530.314 358.766 530.314 374.384L530.315 409.074H596.998H795.895L795.889 373.251C795.898 358.206 797.82 343.649 785.96 332.127C776.258 322.703 767.077 323.536 754.673 323.544L729.509 323.549Z" fill="#4886FF"/>
<path d="M574.222 383.026C568.491 383.041 553.056 384.148 548.88 380.694C544.542 377.106 544.909 372.12 545.029 367.012C545.236 358.186 544.711 350.337 555.859 349.455L567.972 349.425C574.746 349.411 583.987 349.721 584.383 359.352C584.796 369.391 586.777 380.848 574.222 383.026ZM556.775 361.243V371.166H572.903V361.243H556.775Z" fill="white"/>
<path d="M614.164 353.764C614.164 351.555 615.955 349.764 618.164 349.764H662.343L695.982 349.766C700.122 349.765 704.599 349.682 708.873 349.705C711.041 349.718 712.768 351.492 712.768 353.659V378.678C712.768 381.019 710.762 382.941 708.421 382.993C707.939 383.004 707.469 383.013 707.027 383.015L664.376 383.026H618.164C615.955 383.026 614.164 381.235 614.164 379.026V353.764ZM637.106 361.243H629.578C627.369 361.243 625.578 363.034 625.578 365.243V367.486C625.578 369.695 627.369 371.486 629.578 371.486H689.345H696.998C699.207 371.486 700.998 369.696 700.998 367.486V365.243C700.998 363.034 699.207 361.243 696.998 361.243H637.106Z" fill="white"/>
<path d="M771.732 383.026C768.457 383.282 763.916 382.848 761.12 383.032C748.657 383.751 741.172 382.61 741.717 367.908C742.004 360.203 740.374 352.379 750.629 349.764C769.372 351.587 781.26 342.879 780.927 369.185C780.836 376.354 779.118 380.998 771.732 383.026ZM753.187 361.243V371.486L763.526 371.502C765.111 371.504 767.411 371.591 768.938 371.486V361.243C763.8 361.252 758.294 361.362 753.187 361.243Z" fill="white"/>
<defs>
<filter id="filter0_d_2116_51" x="0" y="0" width="593" height="283.59" filterUnits="userSpaceOnUse" color-interpolation-filters="sRGB">
<feFlood flood-opacity="0" result="BackgroundImageFix"/>
<feColorMatrix in="SourceAlpha" type="matrix" values="0 0 0 0 0 0 0 0 0 0 0 0 0 0 0 0 0 0 127 0" result="hardAlpha"/>
<feOffset dy="6"/>
<feGaussianBlur stdDeviation="24"/>
<feComposite in2="hardAlpha" operator="out"/>
<feColorMatrix type="matrix" values="0 0 0 0 0.620192 0 0 0 0 0.620192 0 0 0 0 0.620192 0 0 0 0.25 0"/>
<feBlend mode="normal" in2="BackgroundImageFix" result="effect1_dropShadow_2116_51"/>
<feBlend mode="normal" in="SourceGraphic" in2="effect1_dropShadow_2116_51" result="shape"/>
</filter>
</defs>
</svg>
