<svg width="18" height="18" viewBox="0 0 18 18" fill="none" xmlns="http://www.w3.org/2000/svg">
<path d="M9 0C13.9707 0 18 4.0293 18 9C18 13.9707 13.9707 18 9 18C4.0293 18 0 13.9707 0 9C0 4.0293 4.0293 0 9 0ZM9 1.8C5.0238 1.8 1.8 5.0238 1.8 9C1.8 12.9762 5.0238 16.2 9 16.2C12.9762 16.2 16.2 12.9762 16.2 9C16.2 5.0238 12.9762 1.8 9 1.8ZM12.4497 4.8033C12.663 4.6539 12.9528 4.6791 13.1364 4.8636C13.32 5.0472 13.3434 5.337 13.1931 5.5476C11.2311 8.289 10.1511 9.7578 9.9549 9.9549C9.4275 10.4814 8.5725 10.4814 8.0451 9.9549C7.5186 9.4275 7.5186 8.5725 8.0451 8.0451C8.3817 7.7094 9.8496 6.6285 12.4497 4.8033Z" fill="#4886FF"/>
</svg>
